<?xml version="1.0" encoding="UTF-8" standalone="no"?>
<!-- Generator: Adobe Illustrator 24.3.0, SVG Export Plug-In . SVG Version: 6.00 Build 0)  -->

<svg
   version="1.1"
   id="Layer_1"
   x="0px"
   y="0px"
   viewBox="0 0 2017663 287181.38"
   xml:space="preserve"
   sodipodi:docname="0svg.svg"
   inkscape:export-filename="..\..\devfest-theme-hugo-master(1)\New\Website\static\images\logos\pragati_col_text.svg"
   inkscape:export-xdpi="96"
   inkscape:export-ydpi="96"
   width="2017663"
   height="287181.38"
   xmlns:inkscape="http://www.inkscape.org/namespaces/inkscape"
   xmlns:sodipodi="http://sodipodi.sourceforge.net/DTD/sodipodi-0.dtd"
   xmlns="http://www.w3.org/2000/svg"
   xmlns:svg="http://www.w3.org/2000/svg"><defs
   id="defs69"><rect
     x="940.19672"
     y="462.5405"
     width="3.0231404"
     height="74.06694"
     id="rect1979" /><rect
     x="34.766117"
     y="181.38843"
     width="516.95703"
     height="652.99835"
     id="rect1651" /><rect
     x="530.56116"
     y="736.1347"
     width="479.16776"
     height="494.28348"
     id="rect1645" /><rect
     x="575.90826"
     y="535.09589"
     width="198.0157"
     height="34.766117"
     id="rect1415" /><rect
     x="2170.615"
     y="553.23468"
     width="266.03635"
     height="13.604132"
     id="rect1409" /></defs><sodipodi:namedview
   id="namedview67"
   pagecolor="#ffffff"
   bordercolor="#000000"
   borderopacity="0.25"
   inkscape:showpageshadow="2"
   inkscape:pageopacity="0.0"
   inkscape:pagecheckerboard="0"
   inkscape:deskcolor="#d1d1d1"
   showgrid="false" />
<style
   type="text/css"
   id="style2">
	.st0{font-family:'BebasNeue-Regular';}
	.st1{font-size:96.8881px;}
	.st2{letter-spacing:15;}
	.st3{font-family:'Sabastian';}
	.st4{font-size:460.0345px;}
</style>









<text
   xml:space="preserve"
   id="text1407"
   style="white-space:pre;shape-inside:url(#rect1409);fill:#000000"
   transform="translate(-144320.2,-168901.58)" /><text
   xml:space="preserve"
   id="text1413"
   style="white-space:pre;shape-inside:url(#rect1415);fill:#000000"
   transform="translate(-144320.2,-168901.58)" /><path
   d="m -144003.22,-168363.93 c -2.71,-6.08 -5.8,-12.03 -9.39,-17.67 -1.18,-1.84 -1.99,-3.52 -1.1,-5.72 0.44,-1.1 0.29,-2.28 0.22,-3.52 -0.44,-3.89 -2.13,-7.41 -3.67,-10.93 -0.37,-0.96 -1.33,-2.2 -0.52,-2.86 1.98,-1.62 3.01,-4.4 6.24,-4.62 4.11,-0.3 8.08,-4.18 8.88,-7.92 0.52,-2.5 -0.88,-4.33 -2.05,-6.31 -0.52,-0.88 -1.18,-1.91 -0.74,-2.86 0.59,-1.18 1.84,-0.59 2.79,-0.52 3.16,0.3 4.19,-0.14 5.14,-3.22 0.88,-3.01 3.31,-5.36 3.31,-8.73 0,-0.88 1.02,-1.25 1.83,-1.61 1.91,-0.88 3.31,-2.28 3.97,-4.4 1.76,-5.36 -2.87,-16.07 -8.01,-18.34 -0.29,-0.15 -0.58,-0.29 -0.88,-0.29 -2.05,0.14 -3.52,-1.1 -5.06,-2.2 -0.88,-0.66 -1.91,-1.18 -2.94,-1.47 -2.35,-0.81 -4.4,-1.83 -6.46,-3.23 -2.2,-1.54 -3.23,-4.25 -5.43,-5.5 -3.16,-1.76 -5.36,-4.4 -7.56,-6.97 -6.9,-7.99 -19.02,-2.64 -22.03,3.96 -0.73,1.54 -1.32,3.23 -2.79,4.33 -3.67,2.64 -6.9,5.8 -10.05,8.95 -2.57,2.49 -5.29,5.21 -6.32,8.73 -1.17,4.18 -3.74,7.7 -5.21,11.73 -2.2,5.94 -7.19,10.64 -7.12,17.68 0.1,2.71 -0.74,5.43 -0.15,8.21 0.15,0.88 0.44,1.76 -0.15,2.5 -1.46,1.68 -1.76,3.96 -2.64,5.86 -2.42,4.77 -2.86,9.46 -1.61,14.6 0.95,4.11 3.37,7.19 6.68,7.55 3.01,0.37 6.68,-1.98 7.63,-5.2 1.25,-4.04 2.65,-8.07 2.2,-12.47 -0.14,-1.25 0.23,-2.42 0.81,-3.6 1.69,-3.22 3.97,-6.01 5.07,-9.53 0.51,-1.61 1.25,-3.23 1.91,-4.84 0.44,-1.03 1.02,-1.69 2.27,-1.62 4.26,0.22 8.37,1.1 12.56,2.06 1.02,0.22 1.76,0.66 2.05,1.69 0.37,1.24 0.66,2.56 1.18,3.81 1.39,3.74 2.64,7.55 4.4,11.15 1.1,2.2 2.64,4.25 3.16,6.74 0.14,0.59 0.51,1.18 0.95,1.62 2.57,2.35 3.09,5.57 3.6,8.8 0.15,1.17 0.51,2.27 1.61,2.71 2.94,1.18 3.6,3.45 3.31,6.31 -0.1,0.59 0.22,1.25 0.37,1.83 1.17,4.11 2.27,8.15 3.59,12.18 0.88,2.71 1.69,5.43 2.43,8.14 1.17,4.55 3.81,7.99 7.7,10.49 1.91,0 3.82,0 5.73,0 0.15,-0.88 0.95,-1.03 1.47,-1.4 3.45,-2.49 3.08,-6.45 1.69,-9.31 -1.03,-1.69 -2.13,-3.15 -2.87,-4.77 z"
   id="path4"
   style="display:inline;fill:#c4c8b7;stroke-width:0.73378"
   inkscape:label="path4" /><path
   d="m -144068.63,-168644.1 c -0.66,4.11 -0.14,8.36 -0.22,12.47 0,0.96 0.59,1.98 1.1,2.86 0.81,1.32 4.48,2.5 5.44,1.69 2.42,-2.13 4.69,-4.33 4.4,-8.07 -0.15,-2.49 0.15,-5.06 -0.44,-7.48 -0.59,-2.42 -0.37,-4.77 0.37,-6.97 0.88,-2.56 1.02,-5.2 1.02,-7.92 0.1,-4.84 0.23,-9.61 0.23,-14.45 0.1,-4.76 0.51,-9.6 -3.46,-13.34 -1.9,0 -3.81,0 -5.72,0 0.37,0.95 -0.59,0.95 -0.96,1.32 -1.39,1.32 -2.35,2.86 -2.42,4.76 -0.15,5.87 -0.22,11.81 0.44,17.68 0.74,5.79 1.18,11.66 0.22,17.45 z"
   id="path6"
   style="fill:#c4c8b7;stroke-width:0.73378" /><path
   d="m -143896.06,-168556.89 c -1.92,-2.72 -4.35,-3.6 -7.6,-2.64 -4.57,1.32 -8.92,3.15 -13.28,4.99 -4.64,1.98 -9.07,4.4 -13.79,6.23 -3.77,1.47 -7.82,1.91 -11.51,3.52 -2.88,1.25 -6.2,1.47 -8.26,4.25 -1.18,1.62 -0.67,4.99 0.88,5.94 3.1,1.91 6.12,1.84 9.59,0.66 2.88,-0.95 5.31,-2.78 8.12,-3.74 4.2,-1.46 8.7,-1.24 12.83,-3 8.05,-3.38 17.12,-4.4 23.91,-10.64 0,-1.76 0,-3.44 0,-5.21 -0.45,0.15 -0.67,-0.1 -0.89,-0.36 z"
   id="path8"
   style="fill:#c4c8b7;stroke-width:0.735691" /><path
   d="m -144199.38,-168519.19 c 2.21,-0.37 4.33,-0.44 6.54,-0.15 2.13,0.29 4.25,0.44 6.24,-0.66 0.8,-0.51 1.46,-1.1 1.02,-2.05 -0.73,-1.62 -1.61,-3.16 -3.52,-3.45 -2.72,-0.51 -5.36,-1.17 -8.07,-1.54 -4.78,-0.66 -9.55,-1.03 -14.17,-2.28 -2.72,-0.73 -5.66,0.15 -8.37,-1.32 -2.87,-1.54 -6.1,-2.2 -9.25,-2.56 -4.41,-0.59 -8.52,0 -11.53,3.81 -0.22,0.29 -0.51,0.22 -0.81,0.1 0,1.77 0,3.45 0,5.21 0.66,-0.58 0.96,0.1 1.32,0.37 0.89,0.81 1.84,1.39 3.01,1.76 5.51,1.61 11.09,2.86 16.96,2.35 2.65,-0.22 5.36,0.22 8.01,0.44 4.25,0.22 8.44,0.73 12.62,0 z"
   id="path10"
   style="fill:#c4c8b7;stroke-width:0.73378" /><path
   d="m -144078.98,-168444.24 c 1.18,-3.3 2.64,-6.16 4.55,-8.95 1.32,-1.98 2.13,-4.03 1.84,-6.3 1.17,-5.72 -7.05,-13.5 -11.38,-13.79 -2.72,-0.15 -4.85,-1.32 -6.9,-2.79 -3.16,-2.2 -6.39,-4.33 -9.77,-6.16 -2.79,-1.54 -5.8,-3.45 -8.95,-3.45 -4.55,-0.1 -8.81,-1.39 -13.29,-1.98 -1.47,-0.14 -3.01,-0.29 -4.41,-0.88 -5.21,-1.98 -10.57,-2.12 -16,-1.24 -2.42,0.36 -4.84,0.66 -6.97,2.05 -0.66,0.44 -1.55,0.95 -2.21,0.51 -2.13,-1.24 -4.55,-0.44 -6.68,-1.02 -6.16,-1.91 -11.16,0.51 -16.15,3.44 -2.71,1.54 -4.26,4.77 -3.74,7.34 0.59,2.93 3.6,5.94 6.53,6.01 4.26,0.15 8.52,0.74 12.63,-1.02 1.54,-0.66 2.94,-0.52 4.55,-0.22 2.86,0.58 5.51,1.76 8.44,2.05 1.99,0.22 3.97,0.22 5.88,0.37 1.83,0.14 2.86,0.73 3.37,2.78 0.81,3.52 0.37,7.12 1.18,10.56 0.51,2.35 -0.22,3.45 -2.2,4.48 -3.9,2.05 -7.2,5.13 -10.72,7.77 -2.57,1.98 -4.77,4.55 -7.49,6.38 -0.44,0.3 -0.81,0.81 -1.03,1.25 -1.32,2.57 -3.74,3.81 -6.24,4.77 -1.91,0.73 -3.08,1.98 -3.45,3.81 -0.44,2.27 -1.76,3.15 -3.82,3.52 -0.66,0.15 -1.32,0.44 -1.98,0.73 -6.83,3.82 -13.14,8.37 -19.75,12.47 -2.2,1.32 -3.81,3.3 -5.21,5.43 -2.28,3.67 -1.61,8.58 2.06,10.78 3.15,1.91 6.53,1.47 9.47,-1.61 1.17,-1.25 2.2,-2.72 3.59,-3.74 4.78,-3.67 9.03,-7.85 13.07,-12.25 1.98,-2.13 3.75,-4.25 7.05,-3.81 0.51,0.1 1.03,-0.3 1.61,-0.44 4.26,-1.32 7.57,-4.18 10.94,-6.9 0.66,-0.59 1.4,-1.76 2.35,-1.1 2.13,1.39 4.92,1.84 6.1,4.84 1.76,4.48 7.19,7.12 11.3,6.02 2.13,-0.59 3.23,-2.42 4.77,-3.74 0.66,-0.52 1.32,-1.47 2.21,-1.18 1.02,0.3 1.02,1.47 1.24,2.35 0.1,0.37 0.15,0.81 0.15,1.17 0.1,1.54 0.95,2.86 2.28,2.94 3.3,0.14 6.46,1.9 9.76,1.24 1.84,-0.36 2.72,0.22 3.74,1.4 2.06,2.2 4.56,2.71 7.57,2.2 5.87,-1.03 8.58,-5.72 11.96,-9.76 1.1,-1.32 1.1,-2.86 1.18,-4.47 0.22,-4.55 2.27,-8.8 2.13,-13.42 0,-0.22 0.29,-0.37 0.36,-0.59 1.18,-2.79 3.53,-5.13 4.48,-7.85 z"
   id="path12"
   style="fill:#c4c8b7;stroke-width:0.73378" /><path
   d="m -144102.77,-168582.56 c 1.03,0.73 1.55,1.76 1.84,2.93 0.51,2.06 1.47,3.96 2.72,5.72 2.2,3.08 2.93,6.68 3.01,10.42 0.1,0.95 -0.22,2.05 0.22,2.78 2.05,3.52 1.47,7.49 2.05,11.3 0.59,3.89 2.79,7.26 6.54,8.65 4.84,1.84 9.98,2.64 14.75,-0.58 0.59,-0.37 1.32,-0.52 2.06,-0.52 4.33,-0.36 8.66,-0.51 12.99,-0.95 4.19,-0.44 8.52,-0.95 11.97,-3.3 3.96,-2.71 8.22,-4.62 12.48,-6.6 6.09,-2.79 12.33,-5.06 16.74,-10.42 0.1,-0.1 0.14,-0.1 0.22,-0.14 1.39,-1.18 2.64,-2.5 3.15,-4.33 0.3,-1.1 1.03,-2.27 2.06,-2.42 2.5,-0.29 3.89,-2.35 5.87,-3.15 5.95,-2.42 8.89,-7.26 10.87,-12.91 1.03,-2.94 0.51,-5.36 -1.76,-7.48 -2.21,-2.06 -4.92,-2.5 -7.49,-1.32 -3.89,1.9 -7.64,4.32 -9.99,8.06 -1.68,2.64 -4.25,3.74 -6.82,4.77 -1.55,0.59 -3.01,1.18 -4.56,1.91 -2.27,1.1 -4.4,2.42 -6.53,3.81 -1.25,0.81 -2.2,0.74 -3.38,-0.22 -3.3,-2.71 -5.58,-6.38 -8.73,-9.24 -0.81,-0.73 -0.44,-1.54 -0.15,-2.35 1.98,-6.08 4.55,-12.02 5.14,-18.55 0.1,-0.96 0.44,-1.84 0.81,-2.72 0.51,-1.02 0.8,-2.12 0.66,-3.22 -0.44,-3.23 0.73,-6.02 2.42,-8.66 0.88,-1.32 1.18,-2.86 0.44,-4.03 -1.54,-2.57 -0.59,-4.4 1.1,-6.38 0.52,-0.59 0.88,-1.32 1.18,-2.06 2.42,-6.3 4.84,-12.61 7.34,-18.92 1.17,-2.86 1.98,-5.79 1.83,-8.95 -0.29,-4.54 -3.52,-7.99 -7.48,-8.06 -4.19,-0.15 -6.83,2.49 -7.49,7.48 -0.22,1.54 -0.22,3.15 -0.59,4.69 -1.47,5.94 -2.64,11.96 -3.3,18.04 -0.22,1.76 0.22,3.96 -1.4,5.14 -4.84,3.59 -6.02,9.09 -7.41,14.37 -0.44,1.69 -0.52,3.3 -2.87,3.16 -1.61,-0.15 -3.23,1.54 -4.77,0.36 -2.79,-2.12 -5.94,-1.9 -9.1,-1.9 -3.01,0 -5.87,2.78 -6.17,5.79 -0.15,1.03 -0.15,2.05 -0.37,3.01 -0.22,0.88 -0.29,2.05 -1.32,2.42 -1.1,0.37 -1.61,-0.81 -2.2,-1.47 -1.25,-1.25 -2.64,-2.49 -4.33,-1.54 -3.08,1.83 -6.83,2.49 -9.25,5.43 -0.59,0.73 -1.18,0.95 -2.06,0.66 -4.25,-1.1 -6.97,0.15 -9.47,3.59 -3.23,4.55 -2.71,9.68 -2.86,14.74 -0.22,1.18 0.37,2.42 1.39,3.16 z"
   id="path14"
   style="fill:#c4c8b7;stroke-width:0.73378" /><path
   d="m -144206.65,-168581.54 c 5.8,3.6 11.6,7.27 17.77,10.2 2.79,1.32 5.43,2.49 6.02,5.94 0.15,0.73 0.88,1.32 1.32,1.91 2.42,3.3 5.88,5.42 9.18,7.62 0.81,0.52 2.05,0.96 1.61,2.28 -0.73,2.49 -0.8,4.99 -3.01,7.19 -3.52,3.52 -5.13,8.8 -2.13,12.54 1.33,1.61 3.24,2.2 4.92,3.15 0.81,0.44 1.55,0.95 1.4,1.98 -0.1,0.88 -0.88,1.18 -1.62,1.47 -1.61,0.66 -3.52,1.54 -3.15,3.59 0.51,2.86 -0.1,5.87 1.24,8.58 1.03,2.13 1.4,4.04 -0.44,5.94 -0.73,0.81 -0.44,1.98 -0.51,3.67 -0.1,0.88 0.37,2.2 1.1,3.6 3.08,5.64 8.74,7.04 14.24,8.72 0.81,0.22 1.91,0.22 2.57,-0.14 1.77,-1.18 3.6,-0.81 5.51,-0.88 1.03,0 2.13,0.1 3.08,-0.3 4.55,-1.46 9.03,-1.1 13.36,0.66 1.11,0.44 2.13,0.59 3.23,0.52 1.99,-0.1 3.9,0.14 5.8,0.8 1.69,0.59 3.38,1.25 5.22,1.32 8.95,0.3 14.53,-9.31 13.65,-15.69 -0.22,-1.47 -0.51,-3.01 -0.15,-4.48 1.11,-4.03 2.5,-7.92 3.53,-12.02 0.95,-3.96 1.98,-8 1.25,-12.11 -0.44,-2.56 -0.88,-5.2 -1.47,-7.7 -1.84,-8.06 0.36,-16.79 -4.26,-24.42 -1.25,-2.13 -1.91,-4.62 -3.89,-6.31 -0.66,-0.58 -1.47,-1.24 -1.4,-2.12 0.22,-2.42 -0.8,-4.62 -0.95,-6.83 -0.44,-6.52 -3.82,-11 -8.59,-14.81 -2.42,-1.98 -5.07,-2.35 -7.71,-0.81 -2.35,1.4 -3.96,3.52 -3.6,6.46 0.52,4.69 1.77,9.24 4.7,13.13 0.96,1.32 1.62,2.64 1.54,4.32 -0.14,5.06 0.45,10.05 1.84,14.96 0.44,1.62 -0.22,2.64 -1.61,3.45 -3.24,1.84 -6.91,2.64 -10.14,4.4 -1.68,0.96 -2.93,0.74 -4.25,-0.58 -5.73,-5.65 -13,-9.1 -19.31,-13.79 -0.22,-0.15 -0.44,-0.3 -0.66,-0.3 -3.31,-0.29 -5.29,-2.64 -7.27,-4.91 -1.4,-1.54 -2.86,-2.42 -4.92,-2.13 -1.69,0.22 -2.94,-0.44 -3.74,-1.9 -1.1,-1.91 -2.57,-3.38 -4.26,-4.7 -4.92,-4.18 -9.77,-8.51 -14.68,-12.61 -2.87,-2.42 -6.24,-4.11 -10.14,-3.89 -3.08,0.22 -5.43,1.76 -6.53,4.69 -1.03,2.86 -0.44,5.36 1.76,7.56 1.25,1.39 3.01,1.83 4.55,2.78 z"
   id="path16"
   style="fill:#c4c8b7;stroke-width:0.73378" /><path
   d="m -143907.71,-168523.45 c -1.83,0.44 -3.59,1.18 -5.5,1.25 -5.58,0.37 -11.01,1.83 -16.45,2.79 -2.2,0.36 -4.4,2.34 -6.6,1.02 -5,-3.08 -10.13,-2.86 -15.57,-1.98 -1.69,0.3 -3.81,1.25 -4.55,-1.39 -0.51,-1.76 -2.57,-2.86 -1.91,-4.91 0.74,-2.21 0.1,-4.26 -0.44,-6.24 -1.32,-5.28 -4.84,-7.26 -10.06,-5.94 -0.58,0.15 -1.24,0.22 -1.83,0.29 -2.42,0.22 -2.94,-0.51 -1.98,-2.71 1.47,-3.23 0.8,-3.96 -1.47,-6.53 -3.01,-3.37 -8,-4.54 -9.18,-10.05 -0.81,-3.96 -8,-5.86 -12.48,-4.4 -2.05,0.66 -4.04,1.25 -6.09,1.98 -1.69,0.59 -3.6,1.18 -4.19,3.16 -0.51,1.54 -1.46,2.49 -2.79,3.37 -1.24,0.81 -2.27,1.91 -3.15,3.16 -2.35,3.59 -5.58,6.08 -9.62,7.48 -3.16,1.1 -4.99,4.32 -8.37,5.2 -1.47,0.37 -2.94,1.18 -4.26,1.98 -7.34,4.84 -6.24,15.63 -1.32,20.76 1.54,1.61 3.16,3.08 4.04,5.13 1.47,3.52 3.01,7.12 4.77,10.57 1.91,3.66 3.89,7.48 7.49,9.9 4.04,2.71 7.05,6.52 10.79,9.53 1.91,1.54 3.6,3.52 5.07,5.58 1.02,1.46 2.35,2.42 3.89,2.93 1.83,0.66 3.6,1.54 5.28,2.49 2.06,1.18 4.04,2.13 6.46,2.06 1.11,-0.1 2.35,0.36 2.79,1.1 1.1,2.12 3.38,2.78 4.85,4.32 4.4,4.48 9.69,5.87 15.71,5.72 3.16,-0.1 5.36,-1.24 6.61,-4.03 1.17,-2.64 0.95,-5.43 -1.1,-7.48 -3.23,-3.3 -7.13,-5.72 -11.6,-6.89 -1.69,-0.44 -3.09,-1.03 -4.26,-2.28 -3.45,-3.67 -6.76,-7.48 -11.09,-10.19 -1.76,-1.1 -1.76,-2.57 -1.03,-4.48 1.25,-3.3 3.53,-6.08 4.78,-9.46 0.58,-1.68 1.76,-2.27 3.45,-2.13 4.77,0.37 9.47,-0.8 14.17,-0.58 0.73,0.1 1.39,-0.15 2.05,-0.52 1.32,-0.66 2.72,-0.88 4.11,-0.66 1.76,0.22 3.38,-0.1 4.85,-0.8 2.71,-1.4 5.5,-1.03 8.29,-0.52 1.11,0.22 2.21,0.37 2.87,-0.36 2.64,-2.79 5.58,-2.72 8.81,-1.4 0.66,0.3 1.54,0.15 2.35,0.15 3.37,0 6.82,0 10.2,0 0,0 0,0 0,0.1 3.3,0 6.61,-0.1 9.98,0 3.09,0.1 5.95,-0.8 8.59,-2.2 2.06,-1.02 3.45,-2.78 3.97,-5.06 1.1,-6.01 -3.45,-10.19 -9.33,-8.8 z"
   id="path18"
   style="fill:#c4c8b7;stroke-width:0.73378" /><path
   d="m -144141.82,-168407.64 c -1.03,-1.76 -2.42,-2.93 -4.92,-2.71 -3.01,0.22 -4.55,2.05 -6.46,3.88 -2.94,2.94 -3.89,7.19 -6.83,10.13 -1.91,1.9 -4.18,3.22 -5.87,5.42 -3.82,5.06 -7.86,9.9 -11.67,14.89 -1.77,2.35 -3.75,4.7 -3.75,8.73 -0.1,2.05 0.96,3.59 3.53,4.77 2.27,1.02 4.99,0.58 6.75,-1.4 4.04,-4.54 7.42,-9.53 10.72,-14.67 2.79,-4.32 5.14,-9.09 8.88,-12.68 3.53,-3.38 5.95,-7.56 9.03,-11.23 1.18,-1.39 1.62,-3.37 0.59,-5.13 z"
   id="path20"
   style="fill:#c4c8b7;stroke-width:0.73378" /><path
   d="m -144236.16,-168558.14 c 2.35,1.32 4.85,2.2 7.42,3.01 6.31,2.05 12.84,3.59 19.16,5.72 6.16,2.05 11.96,5.13 18.06,7.26 3.01,1.1 5.21,0.44 6.75,-2.27 0.88,-1.54 0.1,-5.58 -1.69,-6.75 -2.79,-1.91 -5.8,-3.52 -9.25,-3.96 -2.05,-0.3 -3.96,-1.03 -5.87,-1.62 -2.28,-0.73 -3.6,-2.78 -5.8,-3.59 -4.77,-1.76 -9.47,-3.81 -14.24,-5.65 -3.75,-1.46 -7.42,-3 -10.94,-3.52 -3.38,-0.1 -6.02,1.62 -6.68,3.89 -0.74,3.01 0.37,5.94 3.08,7.48 z"
   id="path22"
   style="fill:#c4c8b7;stroke-width:0.73378" /><path
   d="m -143976.86,-168380.94 c -2.94,-2.94 -5.8,-6.09 -7.93,-9.61 -2.72,-4.47 -6.09,-8.36 -9.03,-12.69 -1.17,-1.76 -2.86,-3.08 -5.06,-2.64 -4.19,0.88 -5,5.5 -3.53,8.58 1.4,2.79 3.08,5.5 5.58,7.48 3.3,2.64 4.48,6.75 6.53,10.2 3.97,6.45 8.74,12.32 13.29,18.33 1.18,1.54 2.5,2.79 4.26,3.74 4.18,2.28 8.74,-0.44 8.81,-5.35 0.22,-1.32 -0.37,-2.64 -1.25,-3.81 -3.67,-4.92 -7.34,-9.83 -11.67,-14.23 z"
   id="path24"
   style="fill:#c4c8b7;stroke-width:0.73378" /><path
   d="m -144121.49,-168401.77 c -1.68,-0.22 -3.89,0.22 -4.47,1.9 -1.18,3.45 -3.67,6.17 -5.07,9.54 -0.95,2.35 -1.69,4.77 -2.86,6.97 -1.18,2.2 -3.09,4.1 -3.6,6.6 -0.44,2.12 -1.47,3.66 -2.86,5.28 -3.38,4.03 -5.73,8.65 -6.54,13.86 0.15,0.88 0.22,1.76 0.44,2.64 0.52,2.71 1.91,4.91 4.78,5.21 2.64,0.29 4.25,-1.69 5.5,-3.82 1.32,-2.12 2.86,-4.18 3.89,-6.45 2.79,-6.45 4.11,-13.5 7.12,-19.95 2.21,-4.77 1.99,-10.19 4.11,-14.96 0.45,-1.03 1.18,-2.05 1.03,-3.38 -0.14,-1.24 0.44,-3.15 -1.47,-3.44 z"
   id="path26"
   style="fill:#c4c8b7;stroke-width:0.73378" /><path
   d="m -144100.49,-168653.7 c 2.5,5.28 3.38,11.07 5.21,16.57 1.32,4.04 4.04,7.48 4.7,11.74 0.15,0.95 0.44,1.9 0.88,2.64 0.74,1.24 1.47,3 3.23,2.49 1.62,-0.44 2.94,-2.2 2.65,-3.81 -0.59,-3.52 -0.89,-7.12 -1.55,-10.71 -0.51,-2.57 -1.54,-4.92 -1.76,-7.56 -0.22,-2.42 -0.1,-4.98 -1.03,-7.18 -1.02,-2.42 -1.17,-4.84 -0.95,-7.41 0.37,-3.3 -0.51,-6.46 -1.32,-9.54 -0.66,-2.71 -1.98,-5.06 -4.41,-6.74 -1.91,-1.4 -3.81,-1.91 -5.94,-0.88 -2.06,1.02 -2.65,3.08 -2.43,5.06 0.81,5.2 0.37,10.41 2.72,15.33 z"
   id="path28"
   style="fill:#c4c8b7;stroke-width:0.73378" /><path
   d="m -143965.04,-168554.54 c 1.55,0.73 3.17,1.68 4.94,0.58 2.51,-1.69 5.54,-2.57 7.75,-4.33 5.17,-4.1 11.66,-6.08 16.53,-10.48 0.59,-0.52 1.25,-0.59 1.99,-0.74 5.02,-1.32 9.37,-3.81 13.06,-7.33 1.77,-1.69 2.43,-3.96 2.8,-5.87 0.1,-4.47 -3.47,-6.67 -7.23,-4.91 -5.02,2.34 -10.18,4.47 -14.24,8.65 -4.94,4.99 -11.58,8 -16.3,13.28 -1.77,2.05 -3.76,3.81 -6.05,5.28 -1.48,0.95 -2.73,2.12 -3.54,3.74 -0.52,0.73 -0.59,1.69 0.29,2.13 z"
   id="path30"
   style="fill:#c4c8b7;stroke-width:0.735691" /><path
   d="m -143953.88,-168404.56 c -3.97,-2.27 -7.86,-4.69 -11.31,-7.7 -5.5,-4.77 -12.63,-6.97 -18.28,-11.51 -0.44,-0.37 -1.1,-0.59 -1.69,-0.74 -1.76,-0.51 -2.79,0.29 -3.01,1.98 -0.14,1.4 0,3.08 1.25,3.89 3.6,2.35 5.65,6.23 9.4,8.51 4.7,2.78 7.34,8.06 12.33,10.56 0.3,0.14 0.44,0.58 0.66,0.95 2.43,3.96 5.73,7.12 9.47,9.68 1.91,1.32 3.97,1.84 6.24,1.98 2.43,0.15 4.41,-0.88 5.51,-2.93 0.88,-1.69 0.59,-3.67 -0.81,-5.06 -3.23,-3.3 -5.72,-7.26 -9.76,-9.61 z"
   id="path32"
   style="fill:#c4c8b7;stroke-width:0.73378" /><path
   d="m -144087.5,-168384.02 c -0.44,-4.99 -1.24,-10.05 -0.36,-14.6 0.22,-3.74 -2.57,-6.38 -5.36,-5.35 -4.11,1.54 -8,5.79 -7.2,10.93 0.44,3.15 1.69,6.01 2.57,9.02 1.1,4.03 3.01,7.84 3.16,12.17 0.1,1.4 3.23,3.08 4.48,2.57 1.91,-0.88 3.96,-3.67 3.38,-5.72 -1.03,-3.01 -0.44,-6.02 -0.67,-9.02 z"
   id="path34"
   style="fill:#c4c8b7;stroke-width:0.73378" /><path
   d="m -144130,-168621.14 c 2.86,1.98 4.26,4.99 6.46,7.41 3.3,3.66 6.97,7.04 9.03,11.73 0.88,2.06 3.16,2.57 5.28,1.62 3.23,-1.54 3.31,-4.7 3.75,-7.19 0,-3.23 -1.03,-5.65 -3.23,-7.48 -2.72,-2.28 -5.65,-4.26 -8.44,-6.38 -2.79,-2.13 -6.1,-3.6 -8.23,-6.6 -0.73,-1.1 -4.18,-0.88 -4.92,0.14 -1.39,1.76 -1.54,5.5 0.3,6.75 z"
   id="path36"
   style="fill:#c4c8b7;stroke-width:0.73378" /><path
   d="m -143951.46,-168441.45 c 0.37,0 0.73,-0.15 1.1,-0.37 1.25,-0.73 2.5,-1.46 2.13,-3.22 -0.51,-2.13 -1.61,-4.48 -3.6,-4.48 -3.67,-0.1 -6.9,-1.61 -10.35,-2.13 -4.7,-0.8 -9.47,-1.46 -13.87,-3.52 -3.38,-1.54 -6.24,0.3 -6.24,3.96 0,4.77 4.47,9.61 9.17,9.76 7.2,0.29 14.47,-0.59 21.66,0 z"
   id="path38"
   style="fill:#c4c8b7;stroke-width:0.73378" /><path
   d="m -144178.82,-168488.83 c 1.76,-0.22 3.08,-0.73 3.74,-2.35 0.66,-1.68 0.52,-3.44 -0.73,-4.91 -2.13,-2.42 -4.85,-3.59 -8.22,-3.96 -0.44,0.1 -1.11,0.22 -1.69,0.37 -4.11,0.95 -7.12,3.81 -10.57,6.01 -3.23,2.13 -6.32,4.62 -9.99,6.16 -1.54,0.66 -2.42,3.67 -1.47,4.84 1.32,1.69 4.85,3.01 6.61,1.76 2.79,-1.98 6.09,-2.27 9.1,-3.52 4.34,-1.76 8.52,-3.89 13.22,-4.4 z"
   id="path40"
   style="fill:#c4c8b7;stroke-width:0.73378" /><path
   d="m -143992.64,-168570.46 c 0.95,2.2 3.08,2.42 5.06,2.93 4.19,-0.8 8.15,-1.76 9.69,-6.38 1.03,-3.15 1.84,-6.3 2.86,-9.46 1.18,-3.67 1.55,-7.55 3.53,-10.93 0.73,-1.32 -0.66,-4.18 -2.13,-4.4 -3.16,-0.58 -6.09,1.32 -6.68,4.48 -0.22,1.02 -0.66,1.98 -1.32,2.71 -1.25,1.47 -2.13,3.08 -3.01,4.77 -2.06,3.81 -3.6,7.92 -6.68,11 -1.54,1.54 -2.21,3.23 -1.32,5.28 z"
   id="path42"
   style="fill:#c4c8b7;stroke-width:0.73378" /><text
   xml:space="preserve"
   id="text1643"
   style="font-style:normal;font-variant:normal;font-weight:normal;font-stretch:normal;font-size:64px;font-family:BebasNeue-Regular;-inkscape-font-specification:BebasNeue-Regular;white-space:pre;shape-inside:url(#rect1645);fill:#000000"
   transform="translate(-144320.2,-168901.58)" /><text
   xml:space="preserve"
   id="text1649"
   style="font-style:normal;font-variant:normal;font-weight:normal;font-stretch:normal;font-size:64px;font-family:BebasNeue-Regular;-inkscape-font-specification:BebasNeue-Regular;white-space:pre;shape-inside:url(#rect1651);fill:#000000"
   transform="translate(-144320.2,-168901.58)" /><path
   d="m -143166.01,-168524.82 a 35.696529,42.490693 0 0 0 -2.46,-5.47 1.5081885,1.795244 0 0 1 -0.27,-1.76 1.7950723,2.1367305 0 0 0 0,-1.08 9.8360148,11.708112 0 0 0 -0.94,-3.38 c -0.1,-0.28 -0.33,-0.68 -0.14,-0.88 0.52,-0.5 0.82,-1.36 1.64,-1.43 a 2.8196569,3.3563257 0 0 0 2.31,-2.45 2.2540863,2.6831092 0 0 0 -0.54,-1.95 c -0.13,-0.27 -0.31,-0.59 -0.18,-0.88 0.13,-0.29 0.47,-0.18 0.72,-0.15 0.82,0.1 1.09,0 1.33,-0.98 0.24,-0.98 0.87,-1.66 0.82,-2.69 0,-0.29 0.26,-0.39 0.48,-0.51 a 1.8360561,2.1855144 0 0 0 1.03,-1.37 c 0.46,-1.66 -0.74,-4.94 -2.07,-5.67 a 0.6475375,0.7707841 0 0 0 -0.23,-0.1 2.0081859,2.3904064 0 0 1 -1.32,-0.69 2.7294934,3.2490013 0 0 0 -0.76,-0.45 6.5573421,7.8054089 0 0 1 -1.64,-0.98 c -0.58,-0.48 -0.82,-1.32 -1.41,-1.69 a 7.5983199,9.0445172 0 0 1 -1.97,-2.15 c -1.79,-2.46 -4.92,-0.82 -5.74,1.22 a 2.4590029,2.9270282 0 0 1 -0.72,1.32 25.139213,29.923985 0 0 0 -2.62,2.77 5.4835775,6.5272729 0 0 0 -1.64,2.7 c -0.31,1.29 -0.96,2.38 -1.36,3.62 -0.58,1.82 -1.87,3.28 -1.83,5.45 a 11.475347,13.659465 0 0 0 -0,2.53 c 0,0.27 0.11,0.55 -0,0.77 a 6.6393088,7.9029762 0 0 0 -0.7,1.8 5.1966937,6.1857863 0 0 0 -0.42,4.51 2.2950697,2.7318929 0 0 0 1.74,2.34 2.0163827,2.4001631 0 0 0 1.98,-1.61 7.9097901,9.4152738 0 0 0 0.57,-3.84 1.6393356,1.9513521 0 0 1 0.21,-1.11 14.860577,17.689007 0 0 0 1.32,-2.93 c 0.14,-0.51 0.32,-0.98 0.5,-1.5 a 0.54917741,0.65370297 0 0 1 0.59,-0.49 20.762183,24.713875 0 0 1 3.28,0.62 0.6147508,0.73175706 0 0 1 0.53,0.53 c 0.1,0.39 0.18,0.8 0.3,1.18 a 29.450662,35.056041 0 0 0 1.14,3.44 7.3114361,8.7030307 0 0 1 0.82,2.1 0.87704491,1.0439734 0 0 0 0.24,0.5 3.606538,4.2929747 0 0 1 0.93,2.71 c 0.1,0.35 0.13,0.7 0.42,0.84 a 1.377042,1.6391358 0 0 1 0.82,1.95 1.2376984,1.4732709 0 0 0 0.1,0.57 c 0.3,1.26 0.59,2.53 0.92,3.77 0.23,0.83 0.45,1.66 0.63,2.51 a 4.4425987,5.2881643 0 0 0 2.01,3.24 h 1.48 c 0,-0.26 0.24,-0.31 0.37,-0.43 a 1.8360561,2.1855144 0 0 0 0.44,-2.88 c -0.17,-0.55 -0.47,-1 -0.66,-1.5 z"
   id="path1661"
   style="fill:#a7ac93;stroke-width:0.89406" /><path
   d="m -143182.95,-168611.35 a 23.672003,28.177525 0 0 0 -0.1,3.85 1.5491723,1.8440278 0 0 0 0.27,0.88 c 0.21,0.42 1.17,0.77 1.41,0.53 a 2.5163799,2.9953255 0 0 0 1.15,-2.5 11.090101,13.200898 0 0 0 -0.12,-2.32 3.098344,3.6880555 0 0 1 0.11,-2.16 6.7294719,8.0103006 0 0 0 0.27,-2.45 c 0,-1.48 0.1,-2.93 0.1,-4.45 0,-1.52 0.13,-2.92 -0.88,-4.11 h -1.48 c 0.1,0.29 -0.14,0.3 -0.24,0.42 a 1.7622856,2.0977036 0 0 0 -0.63,1.46 34.376864,40.919854 0 0 0 0.12,5.46 17.057285,20.303819 0 0 1 0,5.39 z"
   id="path1663"
   style="fill:#a7ac93;stroke-width:0.89406" /><path
   d="m -143138.3,-168584.41 a 1.6393356,1.9513521 0 0 0 -1.97,-0.81 30.327706,36.100014 0 0 0 -3.42,1.55 c -1.19,0.61 -2.35,1.35 -3.56,1.95 -0.97,0.44 -2.02,0.58 -2.98,1.08 -0.74,0.39 -1.64,0.46 -2.14,1.33 a 1.2540917,1.4927844 0 0 0 0.22,1.83 2.7622799,3.2880283 0 0 0 2.46,0.21 c 0.75,-0.29 1.36,-0.86 2.09,-1.16 1.08,-0.45 2.26,-0.39 3.28,-0.93 2.08,-1.03 4.43,-1.36 6.17,-3.28 v -1.65 a 0.18852358,0.22440549 0 0 1 -0.15,-0.12 z"
   id="path1665"
   style="fill:#a7ac93;stroke-width:0.89406" /><path
   d="m -143216.85,-168572.78 a 5.1311201,6.1077321 0 0 1 1.7,0 2.3852337,2.8392173 0 0 0 1.64,-0.21 c 0.22,-0.14 0.39,-0.34 0.27,-0.64 -0.18,-0.49 -0.41,-0.98 -0.92,-1.08 -0.7,-0.14 -1.4,-0.37 -2.08,-0.47 a 27.868701,33.172986 0 0 1 -3.68,-0.72 c -0.7,-0.22 -1.47,0 -2.15,-0.41 a 7.0491425,8.3908146 0 0 0 -2.41,-0.8 2.9590009,3.5221906 0 0 0 -2.99,1.18 c -0.1,0.1 -0.13,0.1 -0.22,0 v 1.6 c 0.18,-0.18 0.26,0 0.36,0.11 a 2.1147431,2.5172442 0 0 0 0.82,0.55 12.114694,14.420492 0 0 0 4.4,0.73 12.606489,15.005898 0 0 1 2.07,0.13 12.655668,15.064438 0 0 0 3.19,0 z"
   id="path1667"
   style="fill:#a7ac93;stroke-width:0.89406" /><path
   d="m -143185.62,-168549.64 a 10.057325,11.971545 0 0 1 1.19,-2.77 2.3442502,2.7904336 0 0 0 0.47,-1.95 c 0.31,-1.78 -1.83,-4.18 -2.95,-4.26 a 3.377031,4.0197854 0 0 1 -1.78,-0.85 26.417889,31.44604 0 0 0 -2.55,-1.9 5.3032501,6.3126241 0 0 0 -2.32,-1.07 30.03263,35.748771 0 0 1 -3.44,-0.61 4.3852226,5.219867 0 0 1 -1.14,-0.26 8.0245429,9.5518693 0 0 0 -4.14,-0.39 4.098339,4.8783803 0 0 0 -1.8,0.64 c -0.17,0.14 -0.4,0.29 -0.57,0.17 -0.56,-0.38 -1.19,-0.13 -1.72,-0.33 -1.6,-0.59 -2.9,0.16 -4.19,1.05 a 1.9426123,2.3123522 0 0 0 -0.97,2.28 2.0163827,2.4001631 0 0 0 1.7,1.85 7.5327464,8.9664629 0 0 0 3.27,-0.31 1.9262191,2.2928388 0 0 1 1.19,-0.1 21.991691,26.177388 0 0 0 2.19,0.63 c 0.51,0.1 1.02,0.1 1.53,0.12 a 0.81966752,0.9756761 0 0 1 0.87,0.87 c 0.22,1.08 0.1,2.19 0.3,3.25 a 0.88524153,1.0537302 0 0 1 -0.56,1.37 20.40153,24.284577 0 0 0 -2.77,2.39 c -0.67,0.61 -1.24,1.4 -1.94,1.95 a 0.90983138,1.0830004 0 0 0 -0.27,0.4 2.8032635,3.3368122 0 0 1 -1.64,1.48 1.2868781,1.5318114 0 0 0 -0.9,1.17 1.0491746,1.2488654 0 0 1 -0.99,1.09 1.8196627,2.1660009 0 0 0 -0.51,0.24 c -1.77,1.18 -3.4,2.59 -5.13,3.85 a 4.2540758,5.0637588 0 0 0 -1.34,1.68 2.0081859,2.3904064 0 0 0 0.54,3.33 1.8442523,2.1952712 0 0 0 2.46,-0.49 8.7212627,10.381193 0 0 1 0.93,-1.16 28.270337,33.651067 0 0 0 3.39,-3.78 c 0.52,-0.66 0.97,-1.33 1.83,-1.18 0.13,0 0.28,-0.1 0.41,-0.13 a 8.442579,10.049463 0 0 0 2.82,-2.13 c 0.19,-0.18 0.36,-0.55 0.62,-0.36 0.56,0.44 1.27,0.58 1.57,1.5 a 2.6475271,3.1514337 0 0 0 2.93,1.86 c 0.56,-0.18 0.82,-0.76 1.23,-1.17 0.16,-0.17 0.34,-0.44 0.57,-0.35 0.23,0.1 0.27,0.45 0.32,0.73 a 1.2704852,1.5122979 0 0 1 0,0.36 0.72950428,0.8683517 0 0 0 0.6,0.91 c 0.82,0 1.64,0.58 2.53,0.38 a 0.89343814,1.0634869 0 0 1 0.97,0.44 1.9590058,2.3318658 0 0 0 1.96,0.68 c 1.52,-0.32 2.22,-1.76 3.09,-3.01 a 1.7131055,2.0391629 0 0 0 0.3,-1.37 c 0.1,-1.4 0.59,-2.72 0.55,-4.14 0,-0.1 0.1,-0.12 0.1,-0.18 0.33,-0.87 0.93,-1.59 1.2,-2.45 z"
   id="path1669"
   style="fill:#a7ac93;stroke-width:0.89406" /><path
   d="m -143191.81,-168592.36 a 1.2540917,1.4927844 0 0 1 0.48,0.9 4.3934187,5.2296237 0 0 0 0.69,1.77 4.7786629,5.6881915 0 0 1 0.78,3.22 1.7622856,2.0977036 0 0 0 0,0.87 c 0.53,1.09 0.38,2.31 0.52,3.48 a 2.7212966,3.2392446 0 0 0 1.69,2.67 4.0163721,4.7808127 0 0 0 3.84,-0.17 1.213108,1.4440005 0 0 1 0.52,-0.17 c 1.13,-0.11 2.25,-0.15 3.37,-0.3 a 6.6311121,7.8932189 0 0 0 3.1,-1.03 20.983498,24.977307 0 0 1 3.23,-2.03 c 1.57,-0.87 3.19,-1.58 4.34,-3.22 h 0.1 a 2.2049059,2.6245686 0 0 0 0.82,-1.34 c 0.1,-0.33 0.27,-0.7 0.54,-0.74 0.64,-0.1 1,-0.72 1.53,-0.98 a 5.0901367,6.0589483 0 0 0 2.81,-3.99 1.8032691,2.1464873 0 0 0 -2.4,-2.72 6.0573449,7.2102461 0 0 0 -2.59,2.5 3.2786707,3.9027043 0 0 1 -1.76,1.46 c -0.4,0.19 -0.82,0.37 -1.18,0.6 a 13.934354,16.586493 0 0 0 -1.68,1.17 0.63934082,0.7610273 0 0 1 -0.87,-0.1 c -0.82,-0.84 -1.45,-1.95 -2.27,-2.86 -0.22,-0.24 -0.12,-0.47 -0,-0.73 a 22.131026,26.343253 0 0 0 1.32,-5.73 2.1885126,2.6050551 0 0 1 0.22,-0.84 1.4098286,1.6781628 0 0 0 0.17,-0.97 3.2786707,3.9027043 0 0 1 0.63,-2.68 0.99999425,1.1903248 0 0 0 0.12,-1.25 1.2540917,1.4927844 0 0 1 0.29,-1.95 1.8360561,2.1855144 0 0 0 0.29,-0.62 c 0.64,-1.95 1.26,-3.91 1.91,-5.86 a 5.3360368,6.3516512 0 0 0 0.46,-2.77 2.1065466,2.5074875 0 0 0 -1.93,-2.49 c -1.09,0 -1.77,0.78 -1.94,2.31 a 9.9425715,11.834951 0 0 1 -0.15,1.45 33.458838,39.827097 0 0 0 -0.82,5.58 c -0,0.54 0.1,1.22 -0.35,1.58 -1.26,1.12 -1.57,2.8 -1.94,4.44 -0.11,0.53 -0.13,1.03 -0.74,0.98 -0.42,0 -0.82,0.48 -1.25,0.11 a 3.5491611,4.2246774 0 0 0 -2.35,-0.58 1.7458923,2.07819 0 0 0 -1.64,1.78 5.0163664,5.9711375 0 0 1 -0.11,0.98 c -0.1,0.26 -0.1,0.63 -0.33,0.73 -0.27,0.1 -0.41,-0.25 -0.58,-0.46 -0.31,-0.38 -0.69,-0.77 -1.12,-0.46 -0.82,0.57 -1.78,0.77 -2.39,1.68 a 0.46721059,0.55613536 0 0 1 -0.54,0.22 2.0491696,2.4391902 0 0 0 -2.46,1.1 c -0.82,1.4 -0.7,3 -0.74,4.56 a 1.0081909,1.2000815 0 0 0 0.4,0.87 z"
   id="path1671"
   style="fill:#a7ac93;stroke-width:0.89406" /><path
   d="m -143218.73,-168592.02 a 49.335804,58.725942 0 0 0 4.61,3.16 c 0.71,0.41 1.4,0.76 1.56,1.83 0,0.22 0.22,0.4 0.33,0.6 a 8.745857,10.410464 0 0 0 2.4,2.37 c 0.2,0.16 0.52,0.29 0.41,0.7 a 3.631128,4.322245 0 0 1 -0.79,2.2 c -0.92,1.09 -1.34,2.71 -0.55,3.9 a 3.8852249,4.6247046 0 0 0 1.27,0.97 c 0.21,0.14 0.4,0.3 0.37,0.61 -0,0.31 -0.23,0.36 -0.43,0.46 -0.42,0.21 -0.92,0.48 -0.82,1.11 a 8.4097955,10.010437 0 0 0 0.32,2.64 1.213108,1.4440005 0 0 1 -0.1,1.83 c -0.19,0.24 -0.13,0.6 -0.15,1.13 a 1.9426123,2.3123522 0 0 0 0.29,1.11 c 0.82,1.75 2.28,2.17 3.7,2.7 a 0.90163476,1.0732437 0 0 0 0.66,-0.1 2.3688403,2.8197038 0 0 1 1.41,-0.27 3.1967043,3.8051366 0 0 0 0.82,-0.1 4.9180067,5.8540564 0 0 1 3.46,0.19 1.8524491,2.2050279 0 0 0 0.82,0.17 3.9180115,4.6637316 0 0 1 1.5,0.25 4.8114498,5.7272185 0 0 0 1.36,0.41 c 2.32,0.1 3.77,-2.88 3.54,-4.88 a 2.901624,3.4538933 0 0 1 0,-1.37 c 0.3,-1.24 0.66,-2.46 0.91,-3.71 a 7.45078,8.8688957 0 0 0 0.32,-3.75 c -0.12,-0.8 -0.23,-1.61 -0.38,-2.38 -0.47,-2.5 0.1,-5.18 -1.1,-7.53 a 6.2048847,7.3858676 0 0 0 -1.02,-1.95 c -0.16,-0.18 -0.37,-0.39 -0.35,-0.67 a 9.4999509,11.308086 0 0 0 -0.24,-2.1 5.2868568,6.2931106 0 0 0 -2.23,-4.59 1.6393356,1.9513521 0 0 0 -2,-0.23 1.6393356,1.9513521 0 0 0 -0.93,1.95 6.9016027,8.2151924 0 0 0 1.2,4.06 1.7131055,2.0391629 0 0 1 0.41,1.33 12.672063,15.083952 0 0 0 0.47,4.62 0.72130763,0.8585949 0 0 1 -0.42,1.06 c -0.82,0.58 -1.8,0.81 -2.64,1.36 a 0.81966752,0.9756761 0 0 1 -1.09,-0.17 c -1.49,-1.74 -3.36,-2.81 -5.01,-4.27 a 0.42622725,0.50735156 0 0 0 -0.17,-0.1 2.9344107,3.4929203 0 0 1 -1.88,-1.51 1.3934354,1.6586493 0 0 0 -1.28,-0.67 0.89343814,1.0634869 0 0 1 -0.97,-0.58 4.6229263,5.5028131 0 0 0 -1.1,-1.46 c -1.27,-1.29 -2.52,-2.63 -3.81,-3.91 a 3.606538,4.2929747 0 0 0 -2.63,-1.19 1.8196627,2.1660009 0 0 0 -1.69,1.45 1.7540888,2.0879468 0 0 0 0.45,2.34 5.999968,7.1419488 0 0 0 1.19,0.9 z"
   id="path1673"
   style="fill:#a7ac93;stroke-width:0.89406" /><path
   d="m -143141.24,-168574.09 a 8.4835633,10.098247 0 0 1 -1.43,0.4 36.31128,43.22245 0 0 0 -4.27,0.87 c -0.57,0.12 -1.14,0.72 -1.71,0.31 a 5.5819372,6.6443541 0 0 0 -4.03,-0.62 c -0.44,0.1 -0.98,0.38 -1.17,-0.43 -0.13,-0.53 -0.67,-0.88 -0.5,-1.52 a 2.8688373,3.4148662 0 0 0 -0.12,-1.95 1.8934325,2.2538117 0 0 0 -2.61,-1.82 3.458998,4.117353 0 0 1 -0.48,0.1 c -0.63,0.1 -0.77,-0.17 -0.52,-0.83 0.37,-0.98 0.21,-1.22 -0.39,-2.01 -0.82,-1.04 -2.07,-1.4 -2.37,-3.12 -0.22,-1.21 -2.07,-1.8 -3.28,-1.35 -0.53,0.19 -1.06,0.39 -1.57,0.6 -0.52,0.22 -0.93,0.37 -1.09,0.98 a 1.6393356,1.9513521 0 0 1 -0.73,0.97 2.7868701,3.3172986 0 0 0 -0.82,0.98 4.8360398,5.7564888 0 0 1 -2.5,2.31 c -0.82,0.33 -1.3,1.33 -2.17,1.6 a 3.737685,4.4490829 0 0 0 -1.1,0.62 c -1.9,1.49 -1.64,4.88 -0.33,6.42 a 4.631123,5.5125697 0 0 1 1.04,1.6 c 0.38,1.09 0.77,2.19 1.23,3.25 a 6.6393088,7.9029762 0 0 0 1.93,3.05 c 1.04,0.84 1.83,1.95 2.8,2.93 a 6.958979,8.2834894 0 0 1 1.32,1.72 2.0163827,2.4001631 0 0 0 1.01,0.9 8.0901222,9.6299228 0 0 1 1.36,0.78 2.9917871,3.5612176 0 0 0 1.64,0.63 0.81966752,0.9756761 0 0 1 0.72,0.35 c 0.28,0.64 0.87,0.86 1.24,1.32 a 5.1639071,6.1467592 0 0 0 4.1,1.76 1.7458923,2.07819 0 0 0 1.71,-1.26 1.6393356,1.9513521 0 0 0 -0.29,-2.31 6.5573421,7.8054089 0 0 0 -3.02,-2.14 2.1967092,2.6148119 0 0 1 -1.1,-0.71 15.376967,18.303683 0 0 0 -2.86,-3.14 c -0.47,-0.35 -0.47,-0.79 -0.28,-1.39 0.32,-1.02 0.92,-1.88 1.23,-2.92 a 0.81966752,0.9756761 0 0 1 0.9,-0.67 c 1.23,0.12 2.46,-0.25 3.68,-0.17 a 1.0163876,1.2098383 0 0 0 0.52,-0.16 1.8196627,2.1660009 0 0 1 1.08,-0.21 2.0573662,2.4489469 0 0 0 1.25,-0.27 3.2049011,3.8148934 0 0 1 2.16,-0.15 c 0.27,0.1 0.56,0.11 0.74,-0.12 a 1.8688425,2.2245414 0 0 1 2.3,-0.43 1.6393356,1.9513521 0 0 0 0.6,0 h 2.64 c 0.82,0 1.72,0 2.59,0 a 4.6639097,5.5515968 0 0 0 2.22,-0.67 1.9426123,2.3123522 0 0 0 1.07,-1.39 1.8278595,2.1757576 0 0 0 -2.34,-2.68 z"
   id="path1675"
   style="fill:#a7ac93;stroke-width:0.89406" /><path
   d="m -143201.92,-168538.32 a 1.2458951,1.4830276 0 0 0 -1.27,-0.84 2.5983471,3.0928931 0 0 0 -1.64,1.2 c -0.77,0.91 -1.01,2.22 -1.77,3.13 a 13.688454,16.29379 0 0 0 -1.53,1.68 c -0.97,1.55 -2.02,3.05 -3.02,4.59 a 3.5081782,4.1758936 0 0 0 -0.97,2.71 1.2622885,1.5025412 0 0 0 0.92,1.47 1.4999918,1.7854872 0 0 0 1.73,-0.43 30.721151,36.568339 0 0 0 2.78,-4.53 17.450724,20.772143 0 0 1 2.32,-3.9 33.311294,39.651475 0 0 0 2.32,-3.47 1.1639281,1.38546 0 0 0 0.13,-1.61 z"
   id="path1677"
   style="fill:#a7ac93;stroke-width:0.89406" /><path
   d="m -143226.37,-168584.81 a 9.8360148,11.708112 0 0 0 1.91,0.97 c 1.64,0.64 3.33,1.12 4.96,1.76 1.63,0.63 3.1,1.58 4.7,2.25 a 1.2786814,1.5220547 0 0 0 1.74,-0.69 1.7213023,2.0489197 0 0 0 -0.43,-2.09 5.5901339,6.6541107 0 0 0 -2.39,-1.23 9.7540478,11.610546 0 0 1 -1.53,-0.5 c -0.58,-0.23 -0.92,-0.85 -1.49,-1.11 -1.25,-0.55 -2.46,-1.17 -3.7,-1.73 a 14.647461,17.435331 0 0 0 -2.83,-1.11 1.6393356,1.9513521 0 0 0 -1.72,1.19 1.6393356,1.9513521 0 0 0 0.78,2.29 z"
   id="path1679"
   style="fill:#a7ac93;stroke-width:0.89406" /><path
   d="m -143159.16,-168530.08 a 13.934354,16.586493 0 0 1 -2.06,-2.97 c -0.7,-1.38 -1.58,-2.59 -2.34,-3.91 a 1.2622885,1.5025412 0 0 0 -1.31,-0.81 1.5163852,1.8050007 0 0 0 -0.92,2.65 5.5573472,6.6150837 0 0 0 1.45,2.32 c 0.82,0.82 1.15,2.08 1.69,3.14 1.04,1.95 2.27,3.8 3.46,5.66 a 3.458998,4.117353 0 0 0 1.09,1.15 1.5081885,1.795244 0 0 0 2.28,-1.65 1.3688454,1.629379 0 0 0 -0.32,-1.18 35.294892,42.012611 0 0 0 -3.02,-4.4 z"
   id="path1681"
   style="fill:#a7ac93;stroke-width:0.89406" /><path
   d="m -143196.66,-168536.51 c -0.44,-0.1 -1.02,0.1 -1.17,0.6 -0.31,1.07 -0.95,1.95 -1.3,2.92 a 16.655646,19.825738 0 0 1 -0.74,2.15 6.9425854,8.2639756 0 0 0 -0.94,2.03 3.1557209,3.7563529 0 0 1 -0.74,1.65 7.3770096,8.781085 0 0 0 -1.69,4.28 c 0,0.29 0.1,0.55 0.1,0.81 a 1.4508117,1.7269466 0 0 0 1.23,1.61 c 0.68,0.1 1.1,-0.52 1.43,-1.18 a 13.51632,16.088898 0 0 0 1.01,-1.95 c 0.73,-1.95 1.06,-4.17 1.84,-6.15 0.57,-1.46 0.5,-3.14 1.07,-4.61 a 1.7868756,2.1269738 0 0 0 0.27,-1.04 c 0,-0.44 0.12,-1.03 -0.37,-1.12 z"
   id="path1683"
   style="fill:#a7ac93;stroke-width:0.89406" /><path
   d="m -143191.2,-168614.34 a 35.385055,42.119936 0 0 1 1.34,5.12 c 0.34,1.24 1.03,2.32 1.21,3.64 a 2.1967092,2.6148119 0 0 0 0.23,0.82 c 0.19,0.39 0.38,0.98 0.82,0.78 a 0.95081455,1.1317842 0 0 0 0.69,-1.17 c -0.15,-1.1 -0.23,-2.21 -0.4,-3.29 a 19.942515,23.738199 0 0 1 -0.45,-2.34 6.2212782,7.4053813 0 0 0 -0.26,-2.23 3.6803082,4.3807855 0 0 1 -0.25,-2.28 7.237666,8.61522 0 0 0 -0.34,-2.93 2.9426076,3.502677 0 0 0 -1.13,-2.09 1.401632,1.668406 0 0 0 -1.55,-0.27 1.2049113,1.4342439 0 0 0 -0.62,1.55 c 0.2,1.57 0.1,3.19 0.71,4.69 z"
   id="path1685"
   style="fill:#a7ac93;stroke-width:0.89406" /><path
   d="m -143156.11,-168583.7 c 0.4,0.22 0.82,0.53 1.27,0.17 0.64,-0.51 1.43,-0.79 2.01,-1.34 1.32,-1.28 3,-1.88 4.26,-3.24 a 1.1393381,1.3561897 0 0 1 0.51,-0.24 7.8196255,9.3079501 0 0 0 3.37,-2.27 2.7212966,3.2392446 0 0 0 0.72,-1.81 1.2540917,1.4927844 0 0 0 -1.87,-1.52 11.680265,13.903384 0 0 0 -3.68,2.67 c -1.27,1.53 -2.99,2.46 -4.22,4.09 a 8.3032303,9.8835985 0 0 1 -1.55,1.63 2.4590029,2.9270282 0 0 0 -0.91,1.16 c -0.1,0.31 -0.13,0.57 0.1,0.7 z"
   id="path1687"
   style="fill:#a7ac93;stroke-width:0.89406" /><path
   d="m -143153.22,-168537.38 a 20.229398,24.079685 0 0 1 -2.93,-2.37 c -1.43,-1.47 -3.27,-2.16 -4.74,-3.56 a 1.2049113,1.4342439 0 0 0 -0.44,-0.23 0.5409807,0.64394621 0 0 0 -0.82,0.61 1.0491746,1.2488654 0 0 0 0.32,1.21 c 0.92,0.72 1.47,1.95 2.45,2.62 1.22,0.87 1.91,2.48 3.19,3.26 0.1,0 0.13,0.19 0.18,0.29 a 8.1474941,9.6982205 0 0 0 2.45,3 3.0245739,3.6002446 0 0 0 1.64,0.61 1.4344185,1.7074332 0 0 0 1.44,-0.92 1.1147486,1.3269195 0 0 0 -0.21,-1.56 12.680263,15.093709 0 0 0 -2.53,-2.96 z"
   id="path1689"
   style="fill:#a7ac93;stroke-width:0.89406" /><path
   d="m -143187.85,-168531.02 a 13.803205,16.430385 0 0 1 -0.1,-4.52 c 0.1,-1.15 -0.68,-1.95 -1.39,-1.65 a 2.7622799,3.2880283 0 0 0 -1.88,3.38 20.696614,24.635821 0 0 0 0.66,2.8 13.934354,16.586493 0 0 1 0.82,3.76 c 0,0.42 0.82,0.98 1.17,0.78 0.5,-0.26 1.03,-1.14 0.88,-1.75 a 11.385188,13.552141 0 0 1 -0.16,-2.8 z"
   id="path1691"
   style="fill:#a7ac93;stroke-width:0.89406" /><path
   d="m -143198.87,-168604.26 a 10.598302,12.615491 0 0 1 1.64,2.28 12.090097,14.391222 0 0 1 2.33,3.63 0.96720801,1.1512978 0 0 0 1.37,0.5 c 0.82,-0.47 0.82,-1.44 0.98,-2.22 a 2.3770368,2.8294606 0 0 0 -0.82,-2.32 c -0.71,-0.69 -1.46,-1.31 -2.2,-1.95 a 8.5491304,10.176301 0 0 1 -2.12,-2.05 1.098355,1.3074059 0 0 0 -1.28,0.1 1.4098286,1.6781628 0 0 0 0.1,2.08 z"
   id="path1693"
   style="fill:#a7ac93;stroke-width:0.89406" /><path
   d="m -143152.58,-168548.76 a 0.57376743,0.68297325 0 0 0 0.29,-0.12 c 0.31,-0.22 0.64,-0.44 0.54,-0.98 -0.11,-0.53 -0.42,-1.37 -0.94,-1.39 a 19.073669,22.703982 0 0 1 -2.67,-0.66 13.713043,16.323061 0 0 1 -3.61,-1.09 1.0573713,1.2586221 0 0 0 -1.63,1.22 2.68851,3.2002175 0 0 0 2.37,3.03 c 1.9,0.1 3.76,-0.22 5.65,-0 z"
   id="path1695"
   style="fill:#a7ac93;stroke-width:0.89406" /><path
   d="m -143211.52,-168563.4 a 1.0409778,1.2391086 0 0 0 0.97,-0.72 1.2049113,1.4342439 0 0 0 -0.19,-1.51 3.1393274,3.7368393 0 0 0 -2.14,-1.23 l -0.43,0.11 a 8.6392965,10.283625 0 0 0 -2.73,1.86 15.762208,18.762251 0 0 1 -2.58,1.9 0.99999425,1.1903248 0 0 0 -0.38,1.5 1.5081885,1.795244 0 0 0 1.72,0.55 11.721248,13.952168 0 0 1 2.36,-1.09 12.622885,15.025412 0 0 1 3.4,-1.37 z"
   id="path1697"
   style="fill:#a7ac93;stroke-width:0.89406" /><path
   d="m -143163.25,-168588.61 c 0.24,0.67 0.82,0.75 1.3,0.9 1.08,-0.25 2.12,-0.56 2.52,-1.95 0.27,-0.98 0.47,-1.95 0.74,-2.93 a 13.713043,16.323061 0 0 1 0.91,-3.37 0.97540478,1.1610546 0 0 0 -0.55,-1.37 1.4672048,1.7464602 0 0 0 -1.73,1.37 1.5573685,1.8537845 0 0 1 -0.34,0.85 6.0573449,7.2102461 0 0 0 -0.82,1.48 11.713055,13.942411 0 0 1 -1.74,3.4 1.1475347,1.3659465 0 0 0 -0.29,1.62 z"
   id="path1699"
   style="fill:#a7ac93;stroke-width:0.89406" /><path
   d="m -143991.93,-168361.43 -0.82,-0.19 c -1.88,-0.79 -2.82,-2.24 -2.82,-4.34 l 0.17,-0.98 q 2.32,-10.46 5.14,-36.53 2.81,-26.07 4.48,-57.66 -26.55,-2.37 -42.62,-12.24 a 3.5409645,4.2149207 0 0 1 -2,-3.76 3.4671946,4.1271098 0 0 1 0.5,-2.18 3.7786684,4.4978667 0 0 1 3.16,-2.36 4.163912,4.9564344 0 0 1 1.82,0.59 q 16.91,10.5 39.47,11.47 0.49,-13.23 0.49,-25.47 0,-18.54 -1.58,-40.29 -1.57,-21.75 -8.87,-31.6 a 14.057303,16.732844 0 0 1 -0.67,-4.94 q 0,-10.07 7.97,-13.66 a 14.540907,17.308494 0 0 1 4.31,-0.79 q 8.31,0 11.28,9.48 6.8,23.31 6.8,54.31 a 295.8181,352.12149 0 0 1 -3.48,52.96 209.41694,249.27548 0 0 0 59.89,-15.5 q 29.51,-13.12 50,-33.37 20.5,-20.25 23.51,-44.18 l 0.17,-4.15 q 0,-19.74 -15.1,-31.6 -20.41,-16.18 -61.89,-16.19 -50.1,0 -102.86,22.71 -31.35,13.66 -55.66,34.27 -24.31,20.6 -35.42,47.88 a 3.8278482,4.5564072 0 0 1 -3.65,2.93 l -1.16,-0.2 a 3.7294882,4.4393261 0 0 1 -2.33,-4.14 l 0.17,-1.58 q 7.29,-22.52 31.86,-44.64 24.56,-22.12 58.89,-40.19 a 394.07163,469.07578 0 0 1 71.18,-28.14 q 31.84,-8.69 59.89,-8.69 4.31,0 22.31,0.79 18.01,0.79 37.25,17.78 18.42,16.19 18.42,50.16 0,27.06 -16.1,47.99 -14.93,19.35 -38.24,32.09 a 218.03159,259.52983 0 0 1 -50.2,18.9 259.47397,308.86002 0 0 1 -50.59,6.12 h -1.5 q -7.96,53.91 -17.92,95.78 a 3.3688343,4.0100286 0 0 1 -3.65,3.35 z"
   id="path1701"
   style="fill:#454837;stroke-width:0.89406" /><path
   d="m -143803.2,-168428.96 c -0.22,0 -0.82,-0.1 -1.91,-0.19 -1.09,-0.13 -2.07,-1.71 -3.07,-4.75 q -3.16,-13.23 -3.15,-39.69 0,-32.78 1.83,-63.59 a 12.040918,14.332681 0 0 1 3.81,-9.97 11.795021,14.039979 0 0 1 8.29,-3.86 11.426171,13.600924 0 0 1 8.88,4.45 12.721248,15.142493 0 0 1 3.4,10.57 q -0.16,2.77 -5.96,27.85 -12.79,56.68 -12.78,66.74 c 0,2.25 0.33,3.36 1,3.36 q 1.48,0 4.47,-19.16 2.16,-12.83 5.31,-27.45 7.63,-35.12 17.59,-36.1 7.79,0.39 12.61,6.61 a 60.655415,72.200029 0 0 1 8.46,14.12 q 4.64,11.27 11.47,16.2 a 8.6884837,10.342166 0 0 0 4.49,1.38 q 6.14,0 15.57,-8.29 a 4.6147298,5.4930563 0 0 1 2.32,-0.79 3.2130977,3.8246502 0 0 1 2.66,1.48 3.8852249,4.6247046 0 0 1 0.99,2.86 3.4508012,4.1075963 0 0 1 -1.48,3.29 q -12.46,11.03 -24.08,11.03 -10.94,0 -24.72,-11.46 -7.64,-6.72 -13.27,-6.71 -3.28,0.79 -5.48,8.88 a 150.99101,179.72929 0 0 0 -3.98,19.16 q -1.64,9.46 -3.65,17.77 -3.82,16.26 -9.62,16.26 z"
   id="path1703"
   style="fill:#454837;stroke-width:0.89406" /><path
   d="m -143670.14,-168394.43 -1.17,-0.2 q -8.95,-4.93 -8.95,-43.25 0,-16.79 1,-29.62 l 0.16,-2.93 q -16.26,28.05 -30.33,40.09 -7.13,6.13 -14.1,6.12 a 18.942521,22.547874 0 0 1 -4.32,-0.59 q -9.12,-4.74 -9.12,-20.35 0,-0.39 0.16,-8.58 0.17,-8.2 7.55,-24.09 7.38,-15.91 19.67,-19.26 a 13.934354,16.586493 0 0 1 3.65,-0.6 q 10.78,0 23.23,18.18 c 1.77,-3.16 2.93,-5.14 3.49,-5.93 l -0.51,-5.92 q 0,-8.3 5.48,-11.85 a 13.934354,16.586493 0 0 1 6.97,-2.37 c 1.88,0 4.31,0.79 7.3,2.37 2.99,1.58 4.53,6.38 4.65,14.41 q -0.34,5.93 -5.31,32.2 -7.63,38.92 -7.63,48.78 0,2.93 0.66,3.75 l 0.67,0.21 q 2.63,0 9.28,-9.59 a 195.64652,232.88412 0 0 0 14.6,-24.78 238.6463,284.06809 0 0 0 13.6,-29.52 q 5.65,-14.32 5.82,-21.47 a 3.377031,4.0197854 0 0 1 3.48,-3.16 l 0.99,0.2 c 1.77,0.66 2.66,1.95 2.66,3.95 0,2 -2.6,9.47 -7.8,22.12 q -6.47,15.2 -15.27,32.38 -20.1,39.3 -30.56,39.3 z m -40.65,-46.4 q 2.99,0 11.29,-12.05 a 191.53996,227.99598 0 0 0 12.29,-19.36 q -4.47,-6.31 -8.46,-6.31 -5.8,0 -10.65,11.05 -5.98,13.83 -5.98,23.7 c 0,1.97 0.52,2.97 1.51,2.97 z"
   id="path1705"
   style="fill:#454837;stroke-width:0.89406" /><path
   d="m -143618.05,-168317.61 q -14.27,0 -14.27,-23.1 0,-15.01 10.13,-35.55 a 226.74468,269.90127 0 0 1 43.79,-60.04 q 1.16,-16.39 1.17,-29.42 a 144.54022,172.05072 0 0 0 -1,-21.53 11.204858,13.337492 0 0 1 -10.12,6.72 l -2.33,-0.2 -7.29,14.02 q -8.96,17.56 -14.43,26.67 -3.49,5.32 -6.48,5.32 a 5.4016104,6.4297053 0 0 1 -3.81,-2.16 q -6.31,-8.29 -6.31,-24.1 a 63.4013,75.468546 0 0 1 4.4,-26.96 q 4.4,-13.73 13.19,-21.62 a 20.811365,24.772415 0 0 1 12.61,-4.94 26.073635,31.036256 0 0 1 15.1,5.73 12.991732,15.464466 0 0 1 3.81,-10.47 11.991742,14.274141 0 0 1 8.3,-3.95 l 2.81,0.1 q 2.46,0.11 6.14,4.45 8.46,10.86 8.46,38.51 a 157.37619,187.3298 0 0 1 -1.11,21.9 q 35.83,-31 60.72,-33.37 h 0.5 a 3.2786707,3.9027043 0 0 1 2.24,1.18 3.458998,4.117353 0 0 1 1.07,3.16 3.2786707,3.9027043 0 0 1 -0.99,3.07 3.1475242,3.7465961 0 0 1 -2.16,1.08 l -1,-0.19 a 30.47525,36.275637 0 0 0 -4.64,-0.4 q -19.58,0 -56.91,34.36 -7.45,51.71 -26.22,94.64 -17.94,37.09 -35.37,37.09 z m 1.82,-8.09 q 2.32,0 8.8,-3.07 6.48,-3.06 15.57,-29.52 8.95,-30.6 12.61,-68.13 a 234.7201,279.3946 0 0 0 -36.83,54.7 q -9.13,19.35 -9.13,31.23 a 18.335966,21.825873 0 0 0 0.67,5.92 q 2.35,8.86 8.31,8.87 z m -0.16,-121.65 q 4.65,-7.71 11.29,-21.52 3.15,-6.72 6.63,-13.66 -5.8,0.97 -9.62,7.69 a 46.270247,55.076914 0 0 0 -5.89,14.72 53.753809,63.984837 0 0 0 -2.41,12.77 z"
   id="path1707"
   style="fill:#454837;stroke-width:0.89406" /><path
   d="m -143444.01,-168394.43 -1.16,-0.2 q -8.96,-4.93 -8.96,-43.25 0,-16.79 0.99,-29.62 l 0.17,-2.93 q -16.26,28.05 -30.33,40.09 -7.13,6.13 -14.1,6.12 a 18.852358,22.440549 0 0 1 -4.31,-0.59 q -9.12,-4.74 -9.13,-20.35 0,-0.39 0.17,-8.58 0.17,-8.2 7.55,-24.09 7.38,-15.91 19.67,-19.26 a 13.934354,16.586493 0 0 1 3.65,-0.6 q 10.78,0 23.23,18.18 c 1.77,-3.16 2.93,-5.14 3.48,-5.93 l -0.56,-5.96 q 0,-8.3 5.47,-11.85 a 13.934354,16.586493 0 0 1 6.97,-2.37 q 2.83,0 7.3,2.37 4.48,2.37 4.65,14.41 -0.33,5.94 -5.31,32.2 -7.64,38.92 -7.63,48.78 0,2.93 0.66,3.75 l 0.67,0.21 q 2.65,0 9.28,-9.58 a 196.76948,234.2208 0 0 0 14.61,-24.79 240.06434,285.75601 0 0 0 13.6,-29.52 q 5.65,-14.31 5.81,-21.47 a 3.377031,4.0197854 0 0 1 3.48,-3.16 l 0.99,0.2 c 1.78,0.66 2.66,1.95 2.66,3.95 0,2 -2.6,9.47 -7.79,22.12 q -6.47,15.2 -15.27,32.38 -20.05,39.34 -30.51,39.34 z m -40.65,-46.4 q 2.98,0 11.29,-12.05 a 193.90062,230.80593 0 0 0 12.29,-19.36 q -4.49,-6.31 -8.47,-6.31 -5.8,0 -10.61,11.05 -5.98,13.83 -5.98,23.7 c -0,1.97 0.52,2.97 1.48,2.97 z"
   id="path1709"
   style="fill:#454837;stroke-width:0.89406" /><path
   d="m -143341.14,-168359.08 a 76.081562,90.56225 0 0 1 -14.28,-1.58 h -0.16 q -23.4,-6.52 -34.02,-27.64 -11.77,-23.32 -11.77,-60.63 0,-52.14 19.41,-122.64 -15.58,4.35 -20.99,9.75 -5.41,5.41 -9.83,5.44 a 17.5163,20.850197 0 0 1 -4.99,-1.49 q -3.47,-1.47 -4.81,-12.53 v -1.78 a 12.688453,15.103466 0 0 1 2.74,-9.38 11.860589,14.118033 0 0 1 7.88,-5.23 q 15.77,-2.19 35.18,-3.36 17.08,-55.89 29.69,-83.34 3.81,-7.91 10.95,-7.91 a 11.942557,14.2156 0 0 1 5.64,1.79 q 6.47,4.34 6.47,12.63 a 13.458942,16.020601 0 0 1 -1.33,6.91 q -10.12,21.74 -28.19,68.73 34.99,-1.18 82.78,-1.95 c 2.46,0.26 3.65,1.77 3.65,4.53 0,2.77 -1.16,4.02 -3.48,4.15 a 749.62713,892.30452 0 0 0 -88.27,8.1 540.30856,643.14615 0 0 0 -19.91,64.97 q -11.62,44.88 -11.61,77.02 a 81.376577,96.86512 0 0 0 7.13,40.59 q 7.13,18.66 29.37,24.78 a 67.975042,80.912815 0 0 0 12.61,1.39 q 28.86,0 65.2,-27.26 42.62,-31.8 79.51,-94.79 a 3.6557181,4.3515153 0 0 1 3.15,-1.95 3.5655546,4.2441909 0 0 1 2,0.79 4.6803025,5.5711104 0 0 1 1.64,3.74 3.5655546,4.2441909 0 0 1 -0.67,2.37 q -37.82,64.4 -81.62,97.37 -38.05,28.42 -69.07,28.41 z"
   id="path1711"
   style="fill:#454837;stroke-width:0.89406" /><path
   d="m -143141.89,-168491.2 a 5.3114468,6.3223809 0 0 0 -1.99,-0.58 c -1.45,0 -2.6,1.51 -3.49,4.53 q -2.32,6.93 -9.7,15.9 a 77.819303,92.630687 0 0 1 -13.85,13.82 q -6.48,4.88 -9.84,4.88 -3.65,0 -3.65,-4.34 0,-5.33 6.97,-22.51 4.32,-10.86 4.31,-15.01 0,-9.28 -7.63,-13.04 a 12.885179,15.337628 0 0 0 -4.8,-1.18 q -7.97,0 -11.13,9.28 -4.3,13.43 -4.31,24.68 a 40.852243,48.627696 0 0 0 0.82,9.88 q 2.66,15.22 12.78,18.95 a 18.852358,22.440549 0 0 0 4.31,0.6 q 6.64,0 13.61,-4.94 a 77.688065,92.474576 0 0 0 17.21,-16.49 84.065141,100.06534 0 0 0 11.86,-18.26 4.4753856,5.3271913 0 0 0 0.5,-2.37 3.5409645,4.2149207 0 0 0 -1.98,-3.8 z"
   id="path1713"
   style="fill:#454837;stroke-width:0.89406" /><text
   xml:space="preserve"
   id="text1977"
   style="font-style:normal;font-variant:normal;font-weight:normal;font-stretch:normal;font-size:64px;font-family:BebasNeue-Regular;-inkscape-font-specification:BebasNeue-Regular;white-space:pre;shape-inside:url(#rect1979);fill:#000000"
   transform="translate(-144320.2,-168901.58)" /><path
   d="m -144102.77,-168582.56 c 1.03,0.73 1.55,1.76 1.84,2.93 0.51,2.06 1.47,3.96 2.72,5.72 2.2,3.08 2.93,6.68 3.01,10.42 0.1,0.95 -0.22,2.05 0.22,2.78 2.05,3.52 1.47,7.49 2.05,11.3 0.59,3.89 2.79,7.26 6.54,8.65 4.84,1.84 9.98,2.64 14.75,-0.58 0.59,-0.37 1.32,-0.52 2.06,-0.52 4.33,-0.36 8.66,-0.51 12.99,-0.95 4.19,-0.44 8.52,-0.95 11.97,-3.3 3.96,-2.71 8.22,-4.62 12.48,-6.6 6.09,-2.79 12.33,-5.06 16.74,-10.42 0.1,-0.1 0.14,-0.1 0.22,-0.14 1.39,-1.18 2.64,-2.5 3.15,-4.33 0.3,-1.1 1.03,-2.27 2.06,-2.42 2.5,-0.29 3.89,-2.35 5.87,-3.15 5.95,-2.42 8.89,-7.26 10.87,-12.91 1.03,-2.94 0.51,-5.36 -1.76,-7.48 -2.21,-2.06 -4.92,-2.5 -7.49,-1.32 -3.89,1.9 -7.64,4.32 -9.99,8.06 -1.68,2.64 -4.25,3.74 -6.82,4.77 -1.55,0.59 -3.01,1.18 -4.56,1.91 -2.27,1.1 -4.4,2.42 -6.53,3.81 -1.25,0.81 -2.2,0.74 -3.38,-0.22 -3.3,-2.71 -5.58,-6.38 -8.73,-9.24 -0.81,-0.73 -0.44,-1.54 -0.15,-2.35 1.98,-6.08 4.55,-12.02 5.14,-18.55 0.1,-0.96 0.44,-1.84 0.81,-2.72 0.51,-1.02 0.8,-2.12 0.66,-3.22 -0.44,-3.23 0.73,-6.02 2.42,-8.66 0.88,-1.32 1.18,-2.86 0.44,-4.03 -1.54,-2.57 -0.59,-4.4 1.1,-6.38 0.52,-0.59 0.88,-1.32 1.18,-2.06 2.42,-6.3 4.84,-12.61 7.34,-18.92 1.17,-2.86 1.98,-5.79 1.83,-8.95 -0.29,-4.54 -3.52,-7.99 -7.48,-8.06 -4.19,-0.15 -6.83,2.49 -7.49,7.48 -0.22,1.54 -0.22,3.15 -0.59,4.69 -1.47,5.94 -2.64,11.96 -3.3,18.04 -0.22,1.76 0.22,3.96 -1.4,5.14 -4.84,3.59 -6.02,9.09 -7.41,14.37 -0.44,1.69 -0.52,3.3 -2.87,3.16 -1.61,-0.15 -3.23,1.54 -4.77,0.36 -2.79,-2.12 -5.94,-1.9 -9.1,-1.9 -3.01,0 -5.87,2.78 -6.17,5.79 -0.15,1.03 -0.15,2.05 -0.37,3.01 -0.22,0.88 -0.29,2.05 -1.32,2.42 -1.1,0.37 -1.61,-0.81 -2.2,-1.47 -1.25,-1.25 -2.64,-2.49 -4.33,-1.54 -3.08,1.83 -6.83,2.49 -9.25,5.43 -0.59,0.73 -1.18,0.95 -2.06,0.66 -4.25,-1.1 -6.97,0.15 -9.47,3.59 -3.23,4.55 -2.71,9.68 -2.86,14.74 -0.22,1.18 0.37,2.42 1.39,3.16 z"
   id="path2193"
   style="fill:#c4c8b7;stroke-width:0.73378" /></svg>
