<?xml version="1.0" encoding="UTF-8" standalone="no"?>
<!-- Generator: Adobe Illustrator 24.3.0, SVG Export Plug-In . SVG Version: 6.00 Build 0)  -->

<svg
   version="1.1"
   id="Layer_1"
   x="0px"
   y="0px"
   viewBox="0 0 3317054.2 463081.25"
   xml:space="preserve"
   sodipodi:docname="0svg.svg"
   inkscape:export-filename="..\..\devfest-theme-hugo-master(1)\New\Website\static\images\logos\pragari_col_text.png"
   inkscape:export-xdpi="96"
   inkscape:export-ydpi="96"
   width="3317054.2"
   height="463081.25"
   xmlns:inkscape="http://www.inkscape.org/namespaces/inkscape"
   xmlns:sodipodi="http://sodipodi.sourceforge.net/DTD/sodipodi-0.dtd"
   xmlns="http://www.w3.org/2000/svg"
   xmlns:svg="http://www.w3.org/2000/svg"><defs
   id="defs69"><rect
     x="940.19672"
     y="462.5405"
     width="3.0231404"
     height="74.06694"
     id="rect1979" /><rect
     x="34.766117"
     y="181.38843"
     width="516.95703"
     height="652.99835"
     id="rect1651" /><rect
     x="530.56116"
     y="736.1347"
     width="479.16776"
     height="494.28348"
     id="rect1645" /><rect
     x="575.90826"
     y="535.09589"
     width="198.0157"
     height="34.766117"
     id="rect1415" /><rect
     x="2170.615"
     y="553.23468"
     width="266.03635"
     height="13.604132"
     id="rect1409" /></defs><sodipodi:namedview
   id="namedview67"
   pagecolor="#ffffff"
   bordercolor="#000000"
   borderopacity="0.25"
   inkscape:showpageshadow="2"
   inkscape:pageopacity="0.0"
   inkscape:pagecheckerboard="0"
   inkscape:deskcolor="#d1d1d1"
   showgrid="false" />
<style
   type="text/css"
   id="style2">
	.st0{font-family:'BebasNeue-Regular';}
	.st1{font-size:96.8881px;}
	.st2{letter-spacing:15;}
	.st3{font-family:'Sabastian';}
	.st4{font-size:460.0345px;}
</style>







<text
   transform="scale(0.84322023,1.1859298)"
   id="text62"
   style="font-size:68.6951px;letter-spacing:9.20024px;word-spacing:-0.0184007px;stroke-width:0.920024"
   x="-12889.602"
   y="-37968.133"><tspan
     x="-12889.602"
     y="-37968.133"
     class="st0 st1 st2"
     id="tspan58"
     dx="-0.036801044"
     style="font-style:normal;font-variant:normal;font-weight:normal;font-stretch:normal;font-size:68.6951px;font-family:BebasNeue-Regular;-inkscape-font-specification:BebasNeue-Regular;stroke-width:0.920024">Sree Chitra Arts Fest - 2022</tspan></text>

<text
   xml:space="preserve"
   id="text1407"
   style="white-space:pre;shape-inside:url(#rect1409);fill:#000000"
   transform="translate(-11616.416,-45645.059)" /><text
   xml:space="preserve"
   id="text1413"
   style="white-space:pre;shape-inside:url(#rect1415);fill:#000000"
   transform="translate(-11616.416,-45645.059)" /><path
   d="m -11207.707,-45020.822 c -4.591,-10.676 -9.802,-21.095 -15.881,-31 -1.985,-3.216 -3.35,-6.174 -1.861,-10.033 0.744,-1.93 0.496,-3.988 0.372,-6.175 -0.744,-6.817 -3.598,-12.992 -6.203,-19.166 -0.621,-1.672 -2.234,-3.859 -0.869,-5.017 3.35,-2.829 5.087,-7.717 10.546,-8.103 6.948,-0.515 13.648,-7.332 15.013,-13.893 0.868,-4.373 -1.489,-7.589 -3.474,-11.062 -0.869,-1.544 -1.986,-3.344 -1.241,-5.017 0.992,-2.058 3.102,-1.029 4.715,-0.9 5.335,0.514 7.071,-0.257 8.684,-5.66 1.489,-5.274 5.584,-9.39 5.584,-15.307 0,-1.544 1.737,-2.187 3.101,-2.83 3.226,-1.544 5.583,-3.988 6.7,-7.718 2.978,-9.39 -4.839,-28.17 -13.524,-32.158 -0.496,-0.257 -0.992,-0.514 -1.488,-0.514 -3.474,0.257 -5.956,-1.93 -8.561,-3.859 -1.489,-1.158 -3.226,-2.058 -4.963,-2.573 -3.97,-1.415 -7.444,-3.216 -10.918,-5.66 -3.722,-2.701 -5.459,-7.46 -9.181,-9.647 -5.335,-3.087 -9.057,-7.718 -12.779,-12.22 -11.663,-14.021 -32.134,-4.631 -37.221,6.946 -1.241,2.701 -2.234,5.66 -4.715,7.589 -6.203,4.631 -11.662,10.162 -16.997,15.693 -4.343,4.374 -8.933,9.133 -10.67,15.307 -1.986,7.332 -6.328,13.507 -8.809,20.582 -3.722,10.419 -12.159,18.651 -12.035,31 0.124,4.759 -1.241,9.519 -0.248,14.407 0.248,1.543 0.744,3.087 -0.248,4.373 -2.482,2.959 -2.978,6.946 -4.467,10.291 -4.094,8.361 -4.839,16.593 -2.729,25.597 1.612,7.204 5.707,12.606 11.29,13.25 5.087,0.643 11.29,-3.474 12.903,-9.133 2.109,-7.075 4.467,-14.15 3.722,-21.868 -0.248,-2.186 0.372,-4.245 1.365,-6.303 2.854,-5.66 6.7,-10.548 8.561,-16.722 0.868,-2.83 2.109,-5.66 3.226,-8.49 0.744,-1.8 1.737,-2.958 3.846,-2.829 7.196,0.385 14.144,1.929 21.216,3.601 1.737,0.386 2.977,1.158 3.474,2.959 0.62,2.186 1.116,4.502 1.985,6.689 2.357,6.56 4.466,13.249 7.444,19.552 1.861,3.859 4.466,7.46 5.335,11.834 0.248,1.029 0.868,2.058 1.613,2.83 4.342,4.116 5.211,9.776 6.079,15.436 0.248,2.058 0.869,3.987 2.73,4.759 4.962,2.058 6.079,6.046 5.583,11.062 -0.124,1.029 0.372,2.187 0.62,3.216 1.985,7.203 3.846,14.278 6.08,21.353 1.488,4.759 2.853,9.519 4.094,14.278 1.985,7.975 6.452,14.021 13.027,18.395 3.226,0 6.452,0 9.678,0 0.248,-1.544 1.613,-1.801 2.481,-2.445 5.831,-4.373 5.211,-11.319 2.854,-16.336 -1.737,-2.958 -3.598,-5.531 -4.839,-8.361 z"
   id="path4"
   style="display:inline;fill:#008000;stroke-width:1.2633"
   inkscape:label="path4" /><path
   d="m -11318.253,-45512.196 c -1.117,7.203 -0.248,14.664 -0.372,21.867 0,1.673 0.992,3.474 1.861,5.017 1.365,2.316 7.568,4.374 9.181,2.959 4.094,-3.731 7.94,-7.59 7.444,-14.15 -0.248,-4.373 0.248,-8.875 -0.744,-13.12 -0.993,-4.245 -0.621,-8.361 0.62,-12.22 1.489,-4.502 1.737,-9.133 1.737,-13.893 0.124,-8.489 0.372,-16.85 0.372,-25.34 0.124,-8.361 0.869,-16.851 -5.831,-23.411 -3.226,0 -6.452,0 -9.678,0 0.621,1.672 -0.992,1.672 -1.612,2.315 -2.358,2.316 -3.971,5.017 -4.095,8.361 -0.248,10.291 -0.372,20.71 0.745,31.001 1.24,10.162 1.985,20.452 0.372,30.614 z"
   id="path6"
   style="fill:#c837ab;stroke-width:1.2633" /><path
   d="m -11026.609,-45359.253 c -3.242,-4.759 -7.357,-6.302 -12.843,-4.63 -7.73,2.315 -15.086,5.531 -22.442,8.747 -7.855,3.473 -15.335,7.718 -23.315,10.933 -6.359,2.573 -13.216,3.345 -19.45,6.175 -4.863,2.186 -10.473,2.572 -13.964,7.46 -1.995,2.83 -1.123,8.747 1.496,10.42 5.237,3.344 10.348,3.215 16.208,1.157 4.863,-1.672 8.977,-4.888 13.715,-6.56 7.107,-2.573 14.712,-2.187 21.694,-5.274 13.591,-5.917 28.926,-7.718 40.397,-18.652 0,-3.087 0,-6.045 0,-9.132 -0.748,0.257 -1.122,-0.129 -1.496,-0.644 z"
   id="path8"
   style="fill:#000080;stroke-width:1.26659" /><path
   d="m -11539.221,-45293.136 c 3.722,-0.643 7.32,-0.772 11.042,-0.257 3.598,0.515 7.196,0.772 10.546,-1.158 1.365,-0.9 2.481,-1.929 1.737,-3.601 -1.241,-2.83 -2.729,-5.532 -5.955,-6.046 -4.591,-0.9 -9.057,-2.058 -13.648,-2.701 -8.064,-1.158 -16.129,-1.801 -23.945,-3.988 -4.591,-1.286 -9.554,0.257 -14.144,-2.315 -4.839,-2.702 -10.298,-3.859 -15.633,-4.502 -7.444,-1.029 -14.392,0 -19.479,6.688 -0.372,0.515 -0.868,0.386 -1.365,0.129 0,3.087 0,6.046 0,9.133 1.117,-1.029 1.613,0.129 2.233,0.643 1.489,1.415 3.102,2.444 5.087,3.087 9.306,2.83 18.735,5.017 28.66,4.116 4.467,-0.385 9.057,0.386 13.524,0.772 7.196,0.386 14.268,1.287 21.34,0 z"
   id="path10"
   style="fill:#ff6600;stroke-width:1.2633" /><path
   d="m -11335.747,-45161.674 c 1.985,-5.788 4.467,-10.805 7.692,-15.693 2.234,-3.473 3.598,-7.075 3.102,-11.062 1.985,-10.034 -11.911,-23.669 -19.231,-24.183 -4.59,-0.257 -8.188,-2.315 -11.662,-4.888 -5.335,-3.859 -10.794,-7.589 -16.501,-10.805 -4.715,-2.701 -9.802,-6.046 -15.137,-6.046 -7.692,-0.129 -14.888,-2.444 -22.457,-3.473 -2.481,-0.257 -5.086,-0.514 -7.444,-1.544 -8.809,-3.473 -17.866,-3.73 -27.047,-2.186 -4.094,0.643 -8.188,1.157 -11.786,3.601 -1.117,0.772 -2.606,1.673 -3.723,0.901 -3.598,-2.187 -7.692,-0.772 -11.29,-1.801 -10.422,-3.344 -18.858,0.9 -27.295,6.046 -4.591,2.701 -7.196,8.361 -6.328,12.863 0.993,5.145 6.08,10.419 11.042,10.548 7.196,0.257 14.393,1.286 21.34,-1.801 2.606,-1.158 4.963,-0.901 7.693,-0.386 4.838,1.029 9.305,3.087 14.268,3.602 3.35,0.386 6.699,0.386 9.925,0.643 3.102,0.257 4.839,1.286 5.707,4.888 1.365,6.174 0.621,12.477 1.986,18.523 0.868,4.116 -0.373,6.046 -3.722,7.846 -6.576,3.602 -12.159,9.005 -18.115,13.635 -4.342,3.473 -8.064,7.976 -12.655,11.191 -0.744,0.515 -1.365,1.415 -1.737,2.187 -2.233,4.502 -6.327,6.689 -10.546,8.361 -3.225,1.286 -5.211,3.473 -5.831,6.689 -0.744,3.988 -2.978,5.531 -6.452,6.174 -1.116,0.258 -2.233,0.772 -3.349,1.287 -11.539,6.689 -22.209,14.664 -33.375,21.867 -3.722,2.315 -6.452,5.789 -8.809,9.519 -3.846,6.431 -2.73,15.05 3.474,18.909 5.335,3.344 11.042,2.572 16.005,-2.83 1.985,-2.187 3.722,-4.76 6.079,-6.56 8.065,-6.432 15.261,-13.764 22.085,-21.482 3.35,-3.73 6.327,-7.461 11.91,-6.689 0.869,0.129 1.737,-0.514 2.73,-0.772 7.196,-2.315 12.779,-7.332 18.486,-12.091 1.117,-1.029 2.358,-3.087 3.97,-1.929 3.598,2.444 8.313,3.215 10.298,8.489 2.978,7.847 12.159,12.478 19.107,10.548 3.598,-1.029 5.459,-4.245 8.064,-6.56 1.117,-0.901 2.234,-2.573 3.723,-2.058 1.737,0.514 1.737,2.572 2.109,4.116 0.124,0.643 0.248,1.415 0.248,2.058 0.124,2.701 1.613,5.017 3.846,5.145 5.583,0.258 10.918,3.345 16.501,2.187 3.102,-0.643 4.591,0.386 6.328,2.444 3.474,3.859 7.692,4.76 12.779,3.859 9.926,-1.801 14.516,-10.033 20.223,-17.108 1.861,-2.315 1.861,-5.017 1.985,-7.847 0.373,-7.975 3.847,-15.435 3.598,-23.539 0,-0.386 0.497,-0.643 0.621,-1.029 1.985,-4.888 5.955,-9.004 7.568,-13.764 z"
   id="path12"
   style="fill:#800000;stroke-width:1.2633" /><path
   d="m -11375.945,-45404.274 c 1.737,1.287 2.605,3.087 3.101,5.146 0.869,3.601 2.482,6.946 4.591,10.033 3.722,5.402 4.963,11.705 5.087,18.266 0.124,1.672 -0.372,3.601 0.372,4.888 3.474,6.174 2.481,13.12 3.474,19.809 0.992,6.817 4.715,12.734 11.042,15.179 8.189,3.215 16.874,4.63 24.938,-1.03 0.993,-0.643 2.233,-0.9 3.474,-0.9 7.32,-0.643 14.64,-0.9 21.96,-1.672 7.072,-0.772 14.392,-1.672 20.224,-5.789 6.699,-4.759 13.895,-8.103 21.091,-11.577 10.298,-4.888 20.844,-8.875 28.288,-18.265 0.124,-0.129 0.248,-0.129 0.373,-0.258 2.357,-2.058 4.466,-4.373 5.335,-7.589 0.496,-1.929 1.737,-3.987 3.474,-4.245 4.218,-0.514 6.575,-4.116 9.925,-5.531 10.05,-4.245 15.012,-12.734 18.362,-22.639 1.737,-5.145 0.869,-9.39 -2.977,-13.121 -3.722,-3.601 -8.313,-4.373 -12.655,-2.315 -6.576,3.345 -12.904,7.589 -16.874,14.15 -2.853,4.63 -7.196,6.56 -11.538,8.361 -2.606,1.029 -5.087,2.058 -7.693,3.344 -3.846,1.93 -7.444,4.245 -11.042,6.689 -2.109,1.415 -3.722,1.286 -5.707,-0.386 -5.583,-4.759 -9.429,-11.191 -14.764,-16.208 -1.365,-1.286 -0.745,-2.701 -0.248,-4.116 3.349,-10.676 7.692,-21.095 8.684,-32.544 0.124,-1.672 0.745,-3.215 1.365,-4.759 0.869,-1.801 1.365,-3.73 1.117,-5.66 -0.745,-5.66 1.24,-10.548 4.094,-15.178 1.489,-2.316 1.985,-5.017 0.745,-7.075 -2.606,-4.502 -0.993,-7.718 1.861,-11.191 0.868,-1.029 1.488,-2.316 1.985,-3.602 4.094,-11.062 8.188,-22.125 12.407,-33.187 1.985,-5.017 3.35,-10.162 3.101,-15.693 -0.496,-7.975 -5.955,-14.021 -12.655,-14.15 -7.072,-0.257 -11.538,4.374 -12.655,13.121 -0.372,2.701 -0.372,5.531 -0.992,8.232 -2.482,10.42 -4.467,20.967 -5.584,31.644 -0.372,3.087 0.373,6.946 -2.357,9.004 -8.188,6.303 -10.174,15.95 -12.531,25.212 -0.744,2.959 -0.868,5.788 -4.839,5.531 -2.729,-0.257 -5.459,2.701 -8.064,0.643 -4.715,-3.73 -10.05,-3.344 -15.385,-3.344 -5.087,0 -9.925,4.888 -10.422,10.162 -0.248,1.801 -0.248,3.601 -0.62,5.274 -0.372,1.543 -0.496,3.601 -2.233,4.245 -1.861,0.643 -2.73,-1.415 -3.722,-2.573 -2.109,-2.187 -4.467,-4.374 -7.32,-2.701 -5.211,3.215 -11.539,4.373 -15.633,9.518 -0.993,1.287 -1.985,1.673 -3.474,1.158 -7.196,-1.929 -11.787,0.257 -16.005,6.303 -5.459,7.975 -4.591,16.979 -4.839,25.855 -0.372,2.058 0.621,4.245 2.358,5.531 z"
   id="path14"
   style="fill:#c837ab;stroke-width:1.2633" /><path
   d="m -11551.504,-45402.473 c 9.802,6.303 19.603,12.735 30.025,17.88 4.715,2.315 9.181,4.373 10.174,10.419 0.248,1.286 1.488,2.316 2.233,3.345 4.094,5.788 9.925,9.518 15.509,13.377 1.364,0.901 3.474,1.673 2.729,3.988 -1.241,4.373 -1.365,8.747 -5.087,12.606 -5.955,6.174 -8.685,15.436 -3.598,21.996 2.233,2.83 5.459,3.859 8.313,5.531 1.365,0.772 2.605,1.672 2.357,3.473 -0.124,1.544 -1.489,2.058 -2.729,2.573 -2.73,1.157 -5.956,2.701 -5.335,6.303 0.868,5.016 -0.124,10.29 2.109,15.05 1.737,3.73 2.357,7.074 -0.745,10.419 -1.24,1.415 -0.744,3.473 -0.868,6.431 -0.124,1.544 0.62,3.859 1.861,6.303 5.211,9.905 14.764,12.349 24.07,15.308 1.364,0.386 3.225,0.386 4.342,-0.258 2.978,-2.058 6.079,-1.415 9.305,-1.543 1.737,0 3.598,0.128 5.211,-0.515 7.692,-2.572 15.261,-1.929 22.581,1.158 1.861,0.772 3.598,1.029 5.459,0.9 3.35,-0.128 6.576,0.258 9.801,1.415 2.854,1.029 5.708,2.187 8.809,2.316 15.137,0.514 24.566,-16.337 23.077,-27.528 -0.372,-2.572 -0.868,-5.273 -0.248,-7.846 1.861,-7.075 4.218,-13.892 5.955,-21.096 1.613,-6.946 3.35,-14.021 2.11,-21.224 -0.745,-4.502 -1.489,-9.133 -2.482,-13.506 -3.102,-14.15 0.621,-29.457 -7.196,-42.835 -2.109,-3.73 -3.226,-8.104 -6.576,-11.062 -1.116,-1.029 -2.481,-2.187 -2.357,-3.73 0.372,-4.245 -1.365,-8.104 -1.613,-11.963 -0.744,-11.448 -6.451,-19.295 -14.516,-25.984 -4.094,-3.473 -8.561,-4.116 -13.027,-1.415 -3.97,2.444 -6.7,6.174 -6.08,11.32 0.869,8.232 2.978,16.207 7.941,23.025 1.613,2.315 2.729,4.631 2.605,7.589 -0.248,8.876 0.745,17.623 3.102,26.241 0.744,2.83 -0.372,4.631 -2.729,6.046 -5.46,3.216 -11.663,4.631 -17.122,7.718 -2.854,1.672 -4.963,1.286 -7.196,-1.029 -9.678,-9.905 -21.96,-15.951 -32.63,-24.183 -0.373,-0.257 -0.745,-0.515 -1.117,-0.515 -5.583,-0.514 -8.933,-4.63 -12.283,-8.618 -2.357,-2.701 -4.839,-4.245 -8.313,-3.73 -2.853,0.386 -4.962,-0.772 -6.327,-3.345 -1.861,-3.344 -4.343,-5.917 -7.196,-8.232 -8.313,-7.332 -16.501,-14.922 -24.814,-22.125 -4.839,-4.245 -10.546,-7.203 -17.122,-6.817 -5.211,0.385 -9.181,3.087 -11.042,8.232 -1.737,5.017 -0.744,9.39 2.978,13.249 2.109,2.444 5.087,3.216 7.692,4.888 z"
   id="path16"
   style="fill:#ff7f2a;stroke-width:1.2633" /><path
   d="m -11046.293,-45300.596 c -3.101,0.771 -6.079,2.058 -9.305,2.186 -9.429,0.644 -18.61,3.216 -27.791,4.888 -3.722,0.644 -7.445,4.117 -11.167,1.801 -8.436,-5.402 -17.121,-5.016 -26.302,-3.473 -2.854,0.515 -6.452,2.187 -7.693,-2.444 -0.868,-3.087 -4.342,-5.016 -3.226,-8.618 1.241,-3.859 0.125,-7.461 -0.744,-10.934 -2.233,-9.261 -8.189,-12.734 -16.997,-10.419 -0.993,0.257 -2.11,0.386 -3.102,0.514 -4.094,0.386 -4.963,-0.9 -3.35,-4.759 2.481,-5.66 1.365,-6.946 -2.481,-11.448 -5.087,-5.917 -13.524,-7.975 -15.509,-17.623 -1.365,-6.946 -13.524,-10.29 -21.092,-7.718 -3.474,1.158 -6.824,2.187 -10.298,3.473 -2.853,1.029 -6.079,2.059 -7.072,5.532 -0.868,2.701 -2.481,4.373 -4.714,5.917 -2.11,1.415 -3.847,3.344 -5.335,5.531 -3.971,6.303 -9.43,10.676 -16.253,13.12 -5.335,1.93 -8.437,7.59 -14.144,9.133 -2.482,0.643 -4.963,2.058 -7.196,3.473 -12.407,8.49 -10.546,27.399 -2.234,36.403 2.606,2.83 5.335,5.403 6.824,9.004 2.482,6.175 5.087,12.478 8.065,18.523 3.225,6.432 6.575,13.121 12.655,17.366 6.824,4.759 11.91,11.448 18.238,16.722 3.226,2.701 6.079,6.174 8.561,9.776 1.737,2.572 3.97,4.245 6.575,5.145 3.102,1.158 6.08,2.701 8.933,4.374 3.474,2.058 6.824,3.73 10.919,3.601 1.861,-0.128 3.97,0.643 4.714,1.93 1.861,3.73 5.707,4.888 8.189,7.589 7.444,7.847 16.377,10.291 26.551,10.033 5.335,-0.128 9.057,-2.186 11.166,-7.074 1.985,-4.631 1.613,-9.519 -1.861,-13.121 -5.459,-5.788 -12.035,-10.033 -19.603,-12.091 -2.854,-0.772 -5.211,-1.801 -7.196,-3.988 -5.831,-6.432 -11.414,-13.12 -18.735,-17.88 -2.977,-1.929 -2.977,-4.502 -1.737,-7.846 2.11,-5.789 5.956,-10.677 8.065,-16.594 0.993,-2.958 2.978,-3.987 5.831,-3.73 8.065,0.643 16.005,-1.415 23.946,-1.029 1.24,0.128 2.357,-0.257 3.474,-0.901 2.233,-1.157 4.59,-1.543 6.947,-1.157 2.978,0.386 5.708,-0.129 8.189,-1.415 4.591,-2.444 9.305,-1.801 14.02,-0.901 1.861,0.386 3.722,0.643 4.839,-0.643 4.466,-4.888 9.429,-4.759 14.888,-2.444 1.117,0.515 2.605,0.257 3.97,0.257 5.707,0 11.539,0 17.246,0 0,0 0,0 0,0.129 5.583,0 11.166,-0.129 16.873,0 5.211,0.129 10.05,-1.415 14.517,-3.859 3.473,-1.801 5.831,-4.888 6.699,-8.876 1.861,-10.547 -5.831,-17.879 -15.757,-15.435 z"
   id="path18"
   style="fill:#000080;stroke-width:1.2633" /><path
   d="m -11441.95,-45097.486 c -1.737,-3.088 -4.095,-5.146 -8.313,-4.76 -5.087,0.386 -7.692,3.602 -10.918,6.818 -4.963,5.145 -6.576,12.606 -11.539,17.751 -3.226,3.344 -7.072,5.66 -9.925,9.519 -6.452,8.875 -13.276,17.365 -19.727,26.112 -2.978,4.116 -6.328,8.232 -6.328,15.307 -0.124,3.602 1.613,6.303 5.955,8.361 3.847,1.801 8.437,1.029 11.415,-2.444 6.824,-7.975 12.531,-16.722 18.114,-25.726 4.715,-7.59 8.685,-15.951 15.012,-22.254 5.956,-5.917 10.05,-13.249 15.261,-19.68 1.985,-2.444 2.729,-5.917 0.993,-9.004 z"
   id="path20"
   style="fill:#800000;stroke-width:1.2633" /><path
   d="m -11601.38,-45361.439 c 3.97,2.315 8.189,3.859 12.531,5.274 10.67,3.601 21.712,6.303 32.382,10.033 10.422,3.602 20.224,9.004 30.521,12.734 5.087,1.93 8.809,0.772 11.415,-3.987 1.489,-2.701 0.124,-9.776 -2.854,-11.834 -4.714,-3.345 -9.801,-6.175 -15.633,-6.946 -3.474,-0.515 -6.699,-1.801 -9.925,-2.83 -3.846,-1.287 -6.08,-4.888 -9.802,-6.303 -8.064,-3.087 -16.005,-6.689 -24.069,-9.905 -6.328,-2.573 -12.531,-5.274 -18.486,-6.174 -5.708,-0.129 -10.174,2.83 -11.291,6.817 -1.241,5.274 0.621,10.419 5.211,13.121 z"
   id="path22"
   style="fill:#ff7f2a;stroke-width:1.2633" /><path
   d="m -11163.166,-45050.664 c -4.963,-5.146 -9.802,-10.677 -13.4,-16.851 -4.59,-7.847 -10.297,-14.664 -15.26,-22.254 -1.985,-3.087 -4.839,-5.402 -8.561,-4.63 -7.072,1.543 -8.437,9.647 -5.955,15.05 2.357,4.888 5.211,9.647 9.429,13.12 5.583,4.631 7.568,11.834 11.042,17.88 6.7,11.32 14.764,21.61 22.457,32.158 1.985,2.701 4.218,4.888 7.196,6.56 7.072,3.988 14.764,-0.772 14.888,-9.39 0.372,-2.315 -0.62,-4.631 -2.109,-6.689 -6.204,-8.618 -12.407,-17.237 -19.727,-24.954 z"
   id="path24"
   style="fill:#008000;stroke-width:1.2633" /><path
   d="m -11407.583,-45087.196 c -2.854,-0.386 -6.576,0.386 -7.568,3.344 -1.986,6.046 -6.204,10.806 -8.561,16.723 -1.613,4.116 -2.854,8.361 -4.839,12.22 -1.985,3.859 -5.211,7.203 -6.079,11.577 -0.745,3.73 -2.482,6.431 -4.839,9.261 -5.707,7.075 -9.678,15.179 -11.042,24.312 0.248,1.543 0.372,3.087 0.744,4.63 0.869,4.76 3.226,8.619 8.065,9.133 4.466,0.515 7.196,-2.958 9.305,-6.689 2.233,-3.73 4.839,-7.332 6.576,-11.319 4.714,-11.32 6.947,-23.669 12.034,-34.988 3.722,-8.361 3.35,-17.88 6.948,-26.241 0.745,-1.801 1.985,-3.602 1.737,-5.917 -0.248,-2.187 0.745,-5.531 -2.481,-6.046 z"
   id="path26"
   style="fill:#800000;stroke-width:1.2633" /><path
   d="m -11372.099,-45529.047 c 4.218,9.262 5.707,19.424 8.809,29.071 2.233,7.075 6.823,13.121 7.94,20.581 0.248,1.672 0.745,3.345 1.489,4.631 1.241,2.187 2.481,5.274 5.459,4.373 2.73,-0.771 4.963,-3.859 4.466,-6.688 -0.992,-6.175 -1.488,-12.478 -2.605,-18.781 -0.868,-4.502 -2.605,-8.618 -2.978,-13.249 -0.372,-4.245 -0.124,-8.747 -1.737,-12.606 -1.737,-4.245 -1.985,-8.489 -1.613,-12.992 0.621,-5.788 -0.868,-11.319 -2.233,-16.722 -1.116,-4.759 -3.35,-8.875 -7.444,-11.834 -3.226,-2.444 -6.452,-3.344 -10.05,-1.543 -3.474,1.8 -4.466,5.402 -4.094,8.875 1.365,9.133 0.62,18.266 4.591,26.884 z"
   id="path28"
   style="fill:#c837ab;stroke-width:1.2633" /><path
   d="m -11143.186,-45355.136 c 2.619,1.286 5.362,2.958 8.354,1.029 4.239,-2.959 9.351,-4.502 13.092,-7.59 8.727,-7.203 19.699,-10.676 27.928,-18.394 0.997,-0.9 2.12,-1.029 3.367,-1.286 8.478,-2.316 15.834,-6.689 22.068,-12.863 2.992,-2.959 4.114,-6.947 4.738,-10.291 0.124,-7.847 -5.86,-11.705 -12.219,-8.618 -8.478,4.116 -17.206,7.846 -24.063,15.178 -8.354,8.747 -19.575,14.021 -27.555,23.283 -2.992,3.601 -6.358,6.688 -10.224,9.261 -2.493,1.672 -4.613,3.73 -5.984,6.56 -0.873,1.287 -0.998,2.959 0.498,3.731 z"
   id="path30"
   style="fill:#000080;stroke-width:1.26659" /><path
   d="m -11124.332,-45092.084 c -6.7,-3.988 -13.276,-8.232 -19.107,-13.506 -9.305,-8.361 -21.34,-12.22 -30.893,-20.196 -0.745,-0.643 -1.861,-1.029 -2.854,-1.286 -2.978,-0.9 -4.715,0.515 -5.087,3.473 -0.248,2.444 0,5.403 2.109,6.818 6.08,4.116 9.554,10.933 15.881,14.921 7.941,4.888 12.407,14.15 20.844,18.523 0.496,0.257 0.744,1.029 1.117,1.672 4.094,6.946 9.677,12.478 16.005,16.98 3.225,2.315 6.699,3.215 10.545,3.473 4.095,0.257 7.445,-1.544 9.306,-5.146 1.489,-2.958 0.992,-6.431 -1.365,-8.875 -5.459,-5.789 -9.678,-12.735 -16.501,-16.851 z"
   id="path32"
   style="fill:#008000;stroke-width:1.2633" /><path
   d="m -11350.139,-45056.067 c -0.744,-8.747 -2.109,-17.623 -0.62,-25.598 0.372,-6.56 -4.343,-11.191 -9.057,-9.39 -6.948,2.701 -13.524,10.162 -12.159,19.166 0.744,5.531 2.853,10.548 4.342,15.822 1.861,7.075 5.087,13.764 5.335,21.353 0.124,2.444 5.459,5.402 7.568,4.502 3.226,-1.544 6.7,-6.432 5.708,-10.033 -1.737,-5.274 -0.745,-10.548 -1.117,-15.822 z"
   id="path34"
   style="fill:#800000;stroke-width:1.2633" /><path
   d="m -11421.975,-45471.934 c 4.838,3.473 7.196,8.747 10.918,12.992 5.583,6.431 11.786,12.348 15.26,20.581 1.489,3.602 5.335,4.502 8.933,2.83 5.459,-2.702 5.584,-8.233 6.328,-12.606 0,-5.66 -1.737,-9.905 -5.459,-13.121 -4.591,-3.987 -9.553,-7.46 -14.268,-11.191 -4.715,-3.73 -10.298,-6.303 -13.896,-11.577 -1.241,-1.929 -7.072,-1.543 -8.313,0.258 -2.357,3.087 -2.605,9.647 0.497,11.834 z"
   id="path36"
   style="fill:#c837ab;stroke-width:1.2633" /><path
   d="m -11120.238,-45156.786 c 0.62,0 1.241,-0.257 1.861,-0.643 2.109,-1.286 4.218,-2.573 3.598,-5.66 -0.868,-3.73 -2.73,-7.846 -6.079,-7.846 -6.204,-0.129 -11.663,-2.83 -17.494,-3.731 -7.941,-1.415 -16.005,-2.572 -23.449,-6.174 -5.708,-2.701 -10.546,0.515 -10.546,6.946 0,8.361 7.568,16.851 15.508,17.108 12.159,0.515 24.442,-1.029 36.601,0 z"
   id="path38"
   style="fill:#008000;stroke-width:1.2633" /><path
   d="m -11504.482,-45239.882 c 2.978,-0.386 5.211,-1.286 6.328,-4.116 1.117,-2.959 0.868,-6.046 -1.241,-8.619 -3.598,-4.244 -8.188,-6.303 -13.895,-6.946 -0.745,0.129 -1.862,0.386 -2.854,0.643 -6.948,1.673 -12.035,6.689 -17.866,10.548 -5.459,3.731 -10.67,8.104 -16.874,10.805 -2.605,1.158 -4.094,6.432 -2.481,8.49 2.233,2.959 8.189,5.274 11.166,3.087 4.715,-3.473 10.298,-3.987 15.385,-6.174 7.32,-3.087 14.392,-6.818 22.332,-7.718 z"
   id="path40"
   style="fill:#ff6600;stroke-width:1.2633" /><path
   d="m -11189.841,-45383.049 c 1.613,3.858 5.211,4.244 8.561,5.145 7.072,-1.415 13.771,-3.087 16.377,-11.191 1.737,-5.531 3.102,-11.063 4.839,-16.594 1.985,-6.431 2.605,-13.249 5.955,-19.166 1.241,-2.315 -1.117,-7.332 -3.598,-7.718 -5.335,-1.029 -10.298,2.316 -11.29,7.847 -0.373,1.801 -1.117,3.473 -2.234,4.759 -2.109,2.573 -3.598,5.403 -5.086,8.361 -3.474,6.689 -6.08,13.892 -11.291,19.295 -2.605,2.701 -3.722,5.66 -2.233,9.262 z"
   id="path42"
   style="fill:#000080;stroke-width:1.2633" /><text
   xml:space="preserve"
   id="text1643"
   style="font-style:normal;font-variant:normal;font-weight:normal;font-stretch:normal;font-size:64px;font-family:BebasNeue-Regular;-inkscape-font-specification:BebasNeue-Regular;white-space:pre;shape-inside:url(#rect1645);fill:#000000"
   transform="translate(-11616.416,-45645.059)" /><text
   xml:space="preserve"
   id="text1649"
   style="font-style:normal;font-variant:normal;font-weight:normal;font-stretch:normal;font-size:64px;font-family:BebasNeue-Regular;-inkscape-font-specification:BebasNeue-Regular;white-space:pre;shape-inside:url(#rect1651);fill:#000000"
   transform="translate(-11616.416,-45645.059)" /><path
   d="m -9832.9939,-45371.485 a 46.789152,58.380302 0 0 0 -3.223,-7.521 1.976855,2.4665845 0 0 1 -0.3658,-2.413 2.3528873,2.9357717 0 0 0 0.064,-1.488 12.892536,16.08642 0 0 0 -1.2358,-4.638 c -0.1287,-0.389 -0.4399,-0.938 -0.1823,-1.206 0.6769,-0.697 1.0746,-1.877 2.1489,-1.971 a 3.6958595,4.6114406 0 0 0 3.0298,-3.365 2.9545389,3.6864714 0 0 0 -0.709,-2.681 c -0.1726,-0.375 -0.4086,-0.804 -0.2371,-1.206 0.1727,-0.402 0.613,-0.255 0.9461,-0.215 1.0744,0.148 1.4289,0 1.7399,-1.34 0.3121,-1.341 1.1392,-2.279 1.0749,-3.7 0,-0.389 0.3433,-0.536 0.6337,-0.697 a 2.4066067,3.0027985 0 0 0 1.343,-1.877 c 0.6019,-2.279 -0.9666,-6.796 -2.7181,-7.788 a 0.84875844,1.0590227 0 0 0 -0.3013,-0.134 2.6322255,3.2843109 0 0 1 -1.7291,-0.939 3.5776778,4.4639817 0 0 0 -0.9891,-0.63 8.5950226,10.724281 0 0 1 -2.1481,-1.34 c -0.763,-0.657 -1.0742,-1.81 -1.8486,-2.319 a 9.9594821,12.42676 0 0 1 -2.5892,-2.963 c -2.3416,-3.378 -6.4459,-1.126 -7.52,1.676 a 3.2231329,4.0216052 0 0 1 -0.9458,1.823 32.951172,41.11421 0 0 0 -3.4272,3.807 7.1875879,8.9681795 0 0 0 -2.1485,3.7 c -0.4191,1.783 -1.2678,3.271 -1.7836,4.973 -0.7629,2.507 -2.4601,4.518 -2.4062,7.494 a 15.041288,18.767491 0 0 0 -0.064,3.472 c 0.064,0.375 0.1503,0.764 -0.053,1.059 a 8.7024603,10.858334 0 0 0 -0.9136,2.48 6.8115555,8.4989923 0 0 0 -0.5478,6.193 3.0082579,3.7534981 0 0 0 2.2772,3.217 2.6429694,3.2977162 0 0 0 2.6,-2.212 10.367741,12.936163 0 0 0 0.7421,-5.281 2.1487557,2.6810701 0 0 1 0.2791,-1.529 19.478471,24.303901 0 0 0 1.7291,-4.021 c 0.1833,-0.697 0.4196,-1.341 0.6455,-2.065 a 0.71983315,0.89815849 0 0 1 0.7842,-0.67 27.213988,33.955753 0 0 1 4.2972,0.858 0.80578334,1.0054013 0 0 1 0.6983,0.724 c 0.1288,0.536 0.2362,1.099 0.3871,1.622 a 38.602394,48.165425 0 0 0 1.4932,4.732 9.5834498,11.957573 0 0 1 1.0738,2.882 1.1495848,1.4343725 0 0 0 0.3228,0.684 4.7272622,5.8983542 0 0 1 1.2143,3.727 c 0.064,0.482 0.1716,0.965 0.5481,1.152 a 1.804955,2.2520989 0 0 1 1.0741,2.682 1.6223106,2.024208 0 0 0 0.129,0.777 c 0.3974,1.729 0.7729,3.472 1.214,5.188 0.301,1.139 0.5908,2.279 0.8269,3.445 a 5.8231271,7.2657 0 0 0 2.6323,4.451 h 1.9342 c 0,-0.362 0.3117,-0.429 0.4942,-0.59 a 2.4066067,3.0027985 0 0 0 0.5695,-3.955 c -0.2156,-0.764 -0.6125,-1.38 -0.8595,-2.064 z"
   id="path1661"
   style="stroke-width:1.19981" /><path
   d="m -9855.2019,-45490.377 a 31.028029,38.714652 0 0 0 -0.085,5.295 2.0305744,2.5336113 0 0 0 0.3657,1.206 c 0.2688,0.577 1.5257,1.059 1.8483,0.724 a 3.2983397,4.1154426 0 0 0 1.504,-3.431 14.536327,18.13744 0 0 0 -0.161,-3.191 4.061148,5.0672225 0 0 1 0.1395,-2.963 8.8206414,11.005793 0 0 0 0.354,-3.364 c 0,-2.038 0.064,-4.022 0.075,-6.113 0.01,-2.091 0.1725,-4.022 -1.1598,-5.657 h -1.9339 c 0.1286,0.402 -0.1932,0.415 -0.3222,0.576 a 2.3099122,2.8821504 0 0 0 -0.817,2.011 45.059404,56.22204 0 0 0 0.1503,7.507 22.357801,27.896534 0 0 1 0.043,7.4 z"
   id="path1663"
   style="stroke-width:1.19981" /><path
   d="m -9796.6801,-45453.365 a 2.1487557,2.6810701 0 0 0 -2.5783,-1.113 39.751978,49.599797 0 0 0 -4.491,2.132 c -1.5585,0.844 -3.0731,1.863 -4.6629,2.681 -1.2679,0.603 -2.643,0.804 -3.9001,1.488 -0.9666,0.536 -2.1487,0.63 -2.804,1.823 a 1.6437981,2.0510186 0 0 0 0.2896,2.52 3.6206527,4.5176031 0 0 0 3.2236,0.282 c 0.9779,-0.402 1.7838,-1.18 2.7397,-1.596 1.4075,-0.616 2.9547,-0.536 4.2976,-1.273 2.7183,-1.421 5.8013,-1.863 8.0901,-4.504 v -2.266 a 0.24710689,0.30832306 0 0 1 -0.2043,-0.174 z"
   id="path1665"
   style="stroke-width:1.19981" /><path
   d="m -9899.6382,-45437.386 a 6.725605,8.3917494 0 0 1 2.2244,0 3.1264401,3.900957 0 0 0 2.1487,-0.281 c 0.2905,-0.201 0.5158,-0.47 0.3658,-0.885 -0.2474,-0.67 -0.5375,-1.341 -1.2145,-1.475 -0.9136,-0.201 -1.8265,-0.509 -2.7289,-0.657 a 36.528842,45.578191 0 0 1 -4.8137,-0.978 c -0.9233,-0.308 -1.9334,0 -2.8255,-0.563 a 9.2396489,11.528602 0 0 0 -3.1583,-1.099 3.8785043,4.8393316 0 0 0 -3.9108,1.622 c -0.085,0.134 -0.1823,0.09 -0.2896,0 v 2.185 c 0.2251,-0.242 0.3325,0 0.4614,0.161 a 2.7718951,3.4585804 0 0 0 1.0744,0.75 15.87931,19.813108 0 0 0 5.7691,1.006 16.52393,20.617429 0 0 1 2.7183,0.174 16.58839,20.697861 0 0 0 4.1792,0.04 z"
   id="path1667"
   style="stroke-width:1.19981" /><path
   d="m -9858.7038,-45405.588 a 13.182618,16.448365 0 0 1 1.558,-3.807 3.0727211,3.8339303 0 0 0 0.6224,-2.682 c 0.4087,-2.439 -2.4063,-5.737 -3.8672,-5.844 a 4.4264364,5.5230044 0 0 1 -2.3421,-1.167 34.627194,43.205445 0 0 0 -3.3312,-2.614 6.9512241,8.6732618 0 0 0 -3.04,-1.474 39.365208,49.117205 0 0 1 -4.5123,-0.831 5.7479215,7.1718626 0 0 1 -1.4936,-0.362 10.518153,13.123839 0 0 0 -5.4363,-0.536 5.3718894,6.7026752 0 0 0 -2.3527,0.884 c -0.2258,0.188 -0.5271,0.389 -0.7525,0.228 -0.7301,-0.523 -1.5577,-0.174 -2.256,-0.456 -2.0841,-0.804 -3.7922,0.228 -5.4791,1.448 a 2.5462751,3.177068 0 0 0 -1.2787,3.124 2.6429694,3.2977162 0 0 0 2.2238,2.547 9.8735318,12.319517 0 0 0 4.2972,-0.429 2.5247877,3.1502574 0 0 1 1.5476,-0.09 28.825563,35.966555 0 0 0 2.8795,0.871 c 0.6659,0.08 1.3321,0.107 2.0088,0.161 a 1.0743775,1.3405351 0 0 1 1.139,1.193 c 0.2791,1.488 0.1288,3.016 0.3864,4.464 a 1.1603285,1.4477779 0 0 1 -0.7299,1.89 26.741263,33.365917 0 0 0 -3.6317,3.285 c -0.8815,0.831 -1.622,1.917 -2.5464,2.681 a 1.1925596,1.4879939 0 0 0 -0.354,0.549 3.6743718,4.5846299 0 0 1 -2.1496,2.024 1.6867728,2.10464 0 0 0 -1.1811,1.609 1.3752034,1.7158849 0 0 1 -1.2894,1.502 2.3851191,2.9759879 0 0 0 -0.6663,0.321 c -2.321,1.622 -4.4692,3.566 -6.7256,5.295 a 5.576021,6.9573769 0 0 0 -1.7618,2.306 2.6322255,3.2843109 0 0 0 0.7087,4.585 2.4173499,3.0162039 0 0 0 3.2232,-0.684 11.431377,14.263293 0 0 1 1.2143,-1.595 37.055286,46.235054 0 0 0 4.4482,-5.188 c 0.6761,-0.912 1.2677,-1.823 2.4061,-1.622 0.1615,0 0.355,-0.107 0.5374,-0.174 a 11.066093,13.807511 0 0 0 3.696,-2.936 c 0.2366,-0.241 0.4617,-0.751 0.8051,-0.483 0.7315,0.603 1.6657,0.791 2.0636,2.051 a 3.4702407,4.3299282 0 0 0 3.8354,2.561 c 0.73,-0.255 1.0742,-1.046 1.6118,-1.609 0.2145,-0.228 0.4505,-0.603 0.7518,-0.483 0.3008,0.121 0.3545,0.617 0.419,1.006 a 1.6652858,2.0778293 0 0 1 0,0.496 0.95619623,1.1930762 0 0 0 0.7836,1.247 c 1.0748,0.07 2.1495,0.804 3.3099,0.522 a 1.1710722,1.4611832 0 0 1 1.2784,0.604 2.5677628,3.2038788 0 0 0 2.5676,0.938 c 1.9875,-0.442 2.9119,-2.426 4.0505,-4.142 a 2.2454495,2.8017182 0 0 0 0.3975,-1.877 c 0.075,-1.93 0.7735,-3.74 0.7199,-5.684 0,-0.09 0.097,-0.174 0.1179,-0.255 0.4302,-1.193 1.2143,-2.185 1.5689,-3.364 z"
   id="path1669"
   style="stroke-width:1.19981" /><path
   d="m -9866.8154,-45464.277 a 1.6437981,2.0510186 0 0 1 0.6228,1.233 5.7586645,7.1852679 0 0 0 0.9138,2.427 6.2636225,7.8153194 0 0 1 1.0203,4.423 2.3099122,2.8821504 0 0 0 0.064,1.194 c 0.698,1.501 0.4942,3.177 0.6873,4.785 a 3.5669339,4.4505764 0 0 0 2.2137,3.673 5.2644514,6.5686217 0 0 0 5.0277,-0.241 1.5900788,1.9839918 0 0 1 0.6878,-0.228 c 1.4716,-0.147 2.9433,-0.214 4.4152,-0.415 a 8.6917165,10.844928 0 0 0 4.0609,-1.408 27.504077,34.317697 0 0 1 4.2338,-2.788 c 2.0522,-1.207 4.179,-2.172 5.6835,-4.438 h 0.064 a 2.8900759,3.6060393 0 0 0 1.0741,-1.836 c 0.1074,-0.456 0.3548,-0.965 0.7092,-1.019 0.8381,-0.134 1.3215,-0.992 2.0089,-1.34 a 6.6718861,8.3247226 0 0 0 3.6848,-5.483 2.3636312,2.9491771 0 0 0 -3.1472,-3.74 7.9396523,9.906554 0 0 0 -3.3951,3.432 4.2975109,5.3621403 0 0 1 -2.31,2.01 c -0.5164,0.255 -1.0743,0.51 -1.5367,0.818 a 18.264426,22.789096 0 0 0 -2.2129,1.609 0.83801466,1.0456173 0 0 1 -1.139,-0.09 c -1.0746,-1.153 -1.9015,-2.681 -2.9649,-3.928 -0.2903,-0.322 -0.1613,-0.643 -0.064,-1.005 a 29.008196,36.194446 0 0 0 1.7401,-7.869 2.8685884,3.5792286 0 0 1 0.2789,-1.153 1.8479299,2.3057203 0 0 0 0.2262,-1.341 4.2975109,5.3621403 0 0 1 0.8271,-3.673 1.3107404,1.6354528 0 0 0 0.161,-1.716 1.6437981,2.0510186 0 0 1 0.3764,-2.681 2.4066067,3.0027985 0 0 0 0.3869,-0.858 c 0.8381,-2.681 1.6437,-5.362 2.4925,-8.043 a 6.9941992,8.7268832 0 0 0 0.6122,-3.807 2.7611516,3.4451751 0 0 0 -2.5358,-3.418 c -1.4288,0 -2.3203,1.059 -2.5465,3.163 a 13.032205,16.260691 0 0 1 -0.1931,1.998 43.856103,54.720641 0 0 0 -1.0739,7.668 c -0.064,0.737 0.064,1.675 -0.4622,2.171 -1.6435,1.542 -2.0521,3.848 -2.5357,6.1 -0.1503,0.724 -0.1717,1.407 -0.9773,1.34 -0.548,0 -1.0746,0.657 -1.6336,0.161 a 4.6520556,5.8045168 0 0 0 -3.0831,-0.804 2.2884247,2.8553397 0 0 0 -2.1492,2.453 6.5751919,8.2040745 0 0 1 -0.1397,1.341 c -0.085,0.361 -0.097,0.871 -0.4399,1.005 -0.3439,0.134 -0.5374,-0.349 -0.7528,-0.63 -0.4076,-0.523 -0.9018,-1.059 -1.4718,-0.63 -1.0738,0.777 -2.331,1.045 -3.1366,2.306 a 0.61239531,0.76410498 0 0 1 -0.6983,0.294 2.6859448,3.3513377 0 0 0 -3.2232,1.515 c -1.0748,1.917 -0.9245,4.116 -0.9782,6.261 a 1.3214842,1.6488581 0 0 0 0.527,1.206 z"
   id="path1671"
   style="stroke-width:1.19981" /><path
   d="m -9902.0981,-45463.821 a 64.666803,80.686805 0 0 0 6.0381,4.343 c 0.9348,0.563 1.8366,1.046 2.0412,2.52 0,0.295 0.2904,0.55 0.4409,0.818 a 11.463614,14.303509 0 0 0 3.1366,3.258 c 0.2682,0.227 0.688,0.402 0.548,0.965 a 4.7594935,5.9385703 0 0 1 -1.0417,3.016 c -1.2034,1.501 -1.7514,3.727 -0.7205,5.362 a 5.0925505,6.3541362 0 0 0 1.6657,1.341 c 0.2688,0.187 0.5267,0.402 0.4839,0.831 -0.043,0.429 -0.3012,0.496 -0.559,0.63 -0.548,0.295 -1.2036,0.657 -1.0745,1.528 a 11.023122,13.75389 0 0 0 0.419,3.633 1.5900788,1.9839918 0 0 1 -0.1393,2.507 c -0.2474,0.335 -0.1612,0.831 -0.1935,1.555 a 2.5462751,3.177068 0 0 0 0.3866,1.528 c 1.0745,2.399 2.9863,2.976 4.8453,3.7 a 1.1818159,1.4745886 0 0 0 0.8592,-0.08 3.1049525,3.8741463 0 0 1 1.8589,-0.362 4.1900736,5.2280867 0 0 0 1.0748,-0.107 6.4462671,8.0432103 0 0 1 4.5338,0.268 2.4280938,3.0296092 0 0 0 1.0741,0.228 5.1355255,6.4077576 0 0 1 1.9662,0.349 6.3065979,7.8689408 0 0 0 1.7829,0.563 c 3.041,0.134 4.9427,-3.955 4.6422,-6.703 a 3.8032976,4.7454941 0 0 1 0,-1.89 c 0.3864,-1.703 0.8593,-3.378 1.1922,-5.094 a 9.7660945,12.185464 0 0 0 0.4083,-5.148 c -0.15,-1.099 -0.3006,-2.212 -0.4942,-3.271 -0.6127,-3.431 0.1182,-7.118 -1.4399,-10.349 a 8.1330398,10.14785 0 0 0 -1.3322,-2.681 c -0.2144,-0.241 -0.4836,-0.536 -0.4622,-0.911 a 12.452041,15.536802 0 0 0 -0.3218,-2.896 6.9297366,8.6464511 0 0 0 -2.9221,-6.3 2.1487557,2.6810701 0 0 0 -2.6107,-0.322 2.1487557,2.6810701 0 0 0 -1.2252,2.681 9.0462614,11.287305 0 0 0 1.5793,5.577 2.2454495,2.8017182 0 0 1 0.5264,1.836 16.609881,20.724672 0 0 0 0.6233,6.341 0.94545249,1.1796708 0 0 1 -0.5589,1.461 c -1.074,0.791 -2.3524,1.113 -3.4486,1.863 a 1.0743775,1.3405351 0 0 1 -1.4396,-0.227 c -1.9447,-2.4 -4.4048,-3.861 -6.5647,-5.872 a 0.55867648,0.69707823 0 0 0 -0.2146,-0.121 3.8462728,4.7991155 0 0 1 -2.4713,-2.077 1.8264426,2.2789096 0 0 0 -1.6755,-0.912 1.1710722,1.4611832 0 0 1 -1.2679,-0.804 6.0594911,7.5606178 0 0 0 -1.4396,-2.011 c -1.6764,-1.77 -3.3099,-3.606 -4.9965,-5.362 a 4.7272622,5.8983542 0 0 0 -3.4485,-1.636 2.3851191,2.9759879 0 0 0 -2.2131,1.984 2.2991683,2.868745 0 0 0 0.5904,3.218 7.8644456,9.8127166 0 0 0 1.5583,1.233 z"
   id="path1673"
   style="stroke-width:1.19981" /><path
   d="m -9800.5262,-45439.182 a 11.119813,13.874537 0 0 1 -1.8803,0.549 47.594935,59.385703 0 0 0 -5.5981,1.194 c -0.7407,0.174 -1.4931,0.992 -2.2341,0.428 a 7.3165127,9.1290438 0 0 0 -5.2859,-0.857 c -0.5807,0.12 -1.2892,0.522 -1.5366,-0.59 -0.1718,-0.724 -0.8807,-1.207 -0.6554,-2.078 a 3.7603226,4.6918727 0 0 0 -0.1608,-2.681 2.4818127,3.096636 0 0 0 -3.4166,-2.507 4.5338745,5.6570579 0 0 1 -0.6338,0.121 c -0.8165,0.08 -0.9998,-0.228 -0.6771,-1.14 0.4838,-1.34 0.2795,-1.675 -0.5051,-2.761 -1.0747,-1.421 -2.7181,-1.917 -3.1153,-4.277 -0.2796,-1.662 -2.7074,-2.48 -4.2978,-1.863 -0.6877,0.268 -1.386,0.536 -2.0627,0.831 -0.677,0.295 -1.2144,0.51 -1.4289,1.341 a 2.1487557,2.6810701 0 0 1 -0.946,1.34 3.6528842,4.5578191 0 0 0 -1.0739,1.341 6.3388292,7.9091568 0 0 1 -3.2876,3.177 c -1.0749,0.456 -1.6972,1.823 -2.8361,2.198 a 4.8991629,6.1128399 0 0 0 -1.4398,0.845 c -2.4927,2.051 -2.1494,6.703 -0.4408,8.821 a 6.0702349,7.574023 0 0 1 1.3645,2.198 c 0.5054,1.501 1.0096,3.016 1.612,4.464 a 8.7024603,10.858334 0 0 0 2.5354,4.196 c 1.3645,1.153 2.3958,2.681 3.6637,4.022 a 9.1214673,11.381142 0 0 1 1.7295,2.372 2.6429694,3.2977162 0 0 0 1.3217,1.234 10.604111,13.231081 0 0 1 1.7942,1.072 3.9214788,4.8929529 0 0 0 2.1485,0.858 1.0743775,1.3405351 0 0 1 0.9343,0.483 c 0.3764,0.884 1.1392,1.179 1.6336,1.823 a 6.7685805,8.4453708 0 0 0 5.3718,2.413 2.2884247,2.8553397 0 0 0 2.2454,-1.73 2.1487557,2.6810701 0 0 0 -0.3865,-3.177 8.5950226,10.724281 0 0 0 -3.9538,-2.935 2.8793321,3.592634 0 0 1 -1.4395,-0.979 20.155328,25.148438 0 0 0 -3.7605,-4.317 c -0.6125,-0.482 -0.6125,-1.085 -0.3651,-1.903 0.4294,-1.408 1.2138,-2.587 1.6115,-4.022 a 1.0743775,1.3405351 0 0 1 1.1819,-0.911 c 1.6114,0.161 3.2224,-0.349 4.8238,-0.242 a 1.332228,1.6622635 0 0 0 0.6877,-0.214 2.3851191,2.9759879 0 0 1 1.4074,-0.295 2.6966885,3.3647429 0 0 0 1.6433,-0.362 4.2008175,5.2414921 0 0 1 2.8253,-0.214 c 0.3658,0.09 0.7422,0.16 0.9784,-0.161 a 2.4495814,3.0564199 0 0 1 3.0078,-0.59 2.1487557,2.6810701 0 0 0 0.7956,0 h 3.4595 c 1.0739,0 2.2559,0 3.3844,0 a 6.11321,7.6276444 0 0 0 2.9219,-0.925 2.5462751,3.177068 0 0 0 1.3967,-1.904 2.395863,2.9893931 0 0 0 -3.0617,-3.686 z"
   id="path1675"
   style="stroke-width:1.19981" /><path
   d="m -9880.0621,-45390.038 a 1.6330544,2.0376133 0 0 0 -1.6766,-1.153 3.4057781,4.2494961 0 0 0 -2.1486,1.649 c -1.0104,1.247 -1.3217,3.056 -2.3212,4.303 a 17.942113,22.386935 0 0 0 -1.9976,2.306 c -1.2784,2.131 -2.6536,4.196 -3.9537,6.314 a 4.5983373,5.7374901 0 0 0 -1.2789,3.713 1.654542,2.064424 0 0 0 1.2038,2.024 1.9661111,2.4531792 0 0 0 2.2772,-0.59 40.267685,50.243254 0 0 0 3.6419,-6.22 22.873501,28.539991 0 0 1 3.0301,-5.362 43.66271,54.479344 0 0 0 3.0514,-4.772 1.5256163,1.9035598 0 0 0 0.1722,-2.212 z"
   id="path1677"
   style="stroke-width:1.19981" /><path
   d="m -9912.1222,-45453.915 a 12.892536,16.08642 0 0 0 2.5141,1.341 c 2.1488,0.871 4.3618,1.541 6.5004,2.413 2.1373,0.871 4.0612,2.172 6.1553,3.096 a 1.676029,2.0912347 0 0 0 2.2891,-0.951 2.2561934,2.8151236 0 0 0 -0.5695,-2.869 7.3272565,9.142449 0 0 0 -3.1376,-1.689 12.785098,15.952368 0 0 1 -1.9975,-0.684 c -0.7636,-0.322 -1.2143,-1.179 -1.9563,-1.528 -1.6328,-0.764 -3.2227,-1.609 -4.8446,-2.386 a 19.199129,23.955361 0 0 0 -3.7177,-1.515 2.1487557,2.6810701 0 0 0 -2.2568,1.635 2.1487557,2.6810701 0 0 0 1.0211,3.137 z"
   id="path1679"
   style="stroke-width:1.19981" /><path
   d="m -9824.0229,-45378.711 a 18.264426,22.789096 0 0 1 -2.6967,-4.088 c -0.9239,-1.89 -2.0734,-3.553 -3.0623,-5.362 a 1.654542,2.064424 0 0 0 -1.7292,-1.113 1.9875988,2.4799898 0 0 0 -1.2035,3.633 7.2842814,9.0888276 0 0 0 1.9018,3.19 c 1.0738,1.126 1.5037,2.856 2.2237,4.317 1.3537,2.681 2.9755,5.214 4.5233,7.775 a 4.5338745,5.6570579 0 0 0 1.4395,1.582 1.976855,2.4665845 0 0 0 2.9868,-2.266 1.7942113,2.2386935 0 0 0 -0.4189,-1.622 46.262707,57.723439 0 0 0 -3.9645,-6.046 z"
   id="path1681"
   style="stroke-width:1.19981" /><path
   d="m -9873.1757,-45387.545 c -0.5696,-0.09 -1.3323,0.09 -1.5253,0.818 -0.4088,1.475 -1.2573,2.681 -1.7089,4.022 a 21.831354,27.239673 0 0 1 -0.9771,2.949 9.0999795,11.354331 0 0 0 -1.2251,2.788 4.1363547,5.16106 0 0 1 -0.9675,2.266 9.6694001,12.064816 0 0 0 -2.2236,5.885 c 0,0.388 0.085,0.75 0.14,1.112 a 1.9016485,2.372747 0 0 0 1.6118,2.212 c 0.8912,0.121 1.4393,-0.724 1.8686,-1.622 a 17.716488,22.105423 0 0 0 1.3214,-2.681 c 0.9674,-2.681 1.3968,-5.724 2.4178,-8.445 0.752,-2.011 0.6553,-4.317 1.3966,-6.341 a 2.3421435,2.9223664 0 0 0 0.3649,-1.421 c 0.01,-0.617 0.151,-1.421 -0.4936,-1.542 z"
   id="path1683"
   style="stroke-width:1.19981" /><path
   d="m -9866.0209,-45494.479 a 46.380888,57.870898 0 0 1 1.7624,7.038 c 0.4406,1.702 1.3537,3.177 1.5904,5 a 2.8793321,3.592634 0 0 0 0.3006,1.126 c 0.2468,0.536 0.4937,1.34 1.0746,1.072 a 1.2462782,1.5550206 0 0 0 0.9023,-1.608 c -0.194,-1.515 -0.3014,-3.043 -0.5266,-4.531 a 26.13961,32.615218 0 0 1 -0.5908,-3.204 8.1545275,10.174661 0 0 0 -0.3444,-3.07 4.8239563,6.0190024 0 0 1 -0.322,-3.137 9.4867558,11.836925 0 0 0 -0.4508,-4.022 3.8570168,4.8125208 0 0 0 -1.4828,-2.868 1.8371862,2.2923149 0 0 0 -2.0202,-0.376 1.579335,1.9705866 0 0 0 -0.8163,2.132 c 0.2582,2.158 0.1183,4.383 0.9236,6.448 z"
   id="path1685"
   style="stroke-width:1.19981" /><path
   d="m -9820.0261,-45452.386 c 0.5264,0.308 1.0738,0.723 1.665,0.241 0.8484,-0.711 1.8803,-1.086 2.6321,-1.85 1.7408,-1.756 3.9324,-2.574 5.587,-4.451 a 1.4933851,1.8633437 0 0 1 0.6657,-0.321 10.249558,12.788705 0 0 0 4.416,-3.124 3.5669339,4.4505764 0 0 0 0.956,-2.493 1.6437981,2.0510186 0 0 0 -2.4598,-2.078 15.309883,19.102624 0 0 0 -4.8241,3.66 c -1.6656,2.104 -3.9215,3.378 -5.5223,5.616 a 10.883442,13.57962 0 0 1 -2.0418,2.253 3.2231329,4.0216052 0 0 0 -1.1927,1.581 c -0.1288,0.429 -0.1716,0.791 0.1189,0.966 z"
   id="path1687"
   style="stroke-width:1.19981" /><path
   d="m -9816.2341,-45388.738 a 26.515642,33.084405 0 0 1 -3.8357,-3.257 c -1.8795,-2.025 -4.2973,-2.976 -6.22,-4.893 a 1.579335,1.9705866 0 0 0 -0.5808,-0.322 0.70908934,0.88475314 0 0 0 -1.074,0.845 1.3752034,1.7158849 0 0 0 0.4193,1.662 c 1.214,0.992 1.9332,2.681 3.2225,3.592 1.5907,1.193 2.4929,3.419 4.1793,4.478 0.1081,0.07 0.1618,0.268 0.226,0.402 a 10.679311,13.324919 0 0 0 3.2234,4.129 3.964454,4.9465743 0 0 0 2.1486,0.831 1.8801611,2.3459364 0 0 0 1.8803,-1.26 1.4611544,1.8231277 0 0 0 -0.2795,-2.145 16.620629,20.738077 0 0 0 -3.3094,-4.062 z"
   id="path1689"
   style="stroke-width:1.19981" /><path
   d="m -9861.6264,-45380.011 a 18.092523,22.57461 0 0 1 -0.1287,-6.207 c 0.075,-1.581 -0.8915,-2.681 -1.8267,-2.265 a 3.6206527,4.5176031 0 0 0 -2.4606,4.652 27.128044,33.848511 0 0 0 0.8708,3.833 18.264426,22.789096 0 0 1 1.0744,5.175 c 0,0.576 1.0743,1.34 1.5258,1.072 0.6546,-0.362 1.3538,-1.568 1.1494,-2.413 a 14.923111,18.620032 0 0 1 -0.2044,-3.847 z"
   id="path1691"
   style="stroke-width:1.19981" /><path
   d="m -9876.0655,-45480.632 a 13.891703,17.333118 0 0 1 2.1485,3.137 15.847069,19.772892 0 0 1 3.0512,4.987 1.2677659,1.5818314 0 0 0 1.7941,0.684 c 1.0748,-0.644 1.0748,-1.984 1.2893,-3.057 a 3.1156961,3.8875517 0 0 0 -1.0747,-3.177 c -0.9344,-0.951 -1.9227,-1.809 -2.8898,-2.681 a 11.205755,13.98178 0 0 1 -2.7826,-2.815 1.4396666,1.7963169 0 0 0 -1.676,0.07 1.8479299,2.3057203 0 0 0 0.14,2.855 z"
   id="path1693"
   style="stroke-width:1.19981" /><path
   d="m -9815.3956,-45404.382 a 0.75206447,0.93837454 0 0 0 0.3757,-0.161 c 0.4086,-0.308 0.849,-0.603 0.7092,-1.34 -0.1397,-0.738 -0.5483,-1.89 -1.2246,-1.917 a 25.000772,31.194251 0 0 1 -3.5027,-0.912 17.974343,22.427152 0 0 1 -4.7272,-1.488 1.3859473,1.7292902 0 0 0 -2.1486,1.676 3.5239589,4.396955 0 0 0 3.1151,4.156 c 2.4927,0.107 4.9213,-0.295 7.4031,-0.01 z"
   id="path1695"
   style="stroke-width:1.19981" /><path
   d="m -9892.6544,-45424.49 a 1.3644595,1.7024795 0 0 0 1.2787,-0.992 1.579335,1.9705866 0 0 0 -0.2476,-2.078 4.1148669,5.1342492 0 0 0 -2.804,-1.689 l -0.5687,0.148 a 11.32394,14.129239 0 0 0 -3.5783,2.56 20.660282,25.778489 0 0 1 -3.3842,2.614 1.3107404,1.6354528 0 0 0 -0.4944,2.065 1.976855,2.4665845 0 0 0 2.2458,0.75 15.363601,19.169651 0 0 1 3.0938,-1.501 16.54542,20.64424 0 0 1 4.4589,-1.877 z"
   id="path1697"
   style="stroke-width:1.19981" /><path
   d="m -9829.3841,-45459.129 c 0.3115,0.925 1.0738,1.032 1.7083,1.233 1.4183,-0.335 2.7719,-0.764 3.298,-2.681 0.3549,-1.341 0.6233,-2.681 0.9674,-4.022 a 17.974343,22.427152 0 0 1 1.1925,-4.625 1.2785098,1.5952368 0 0 0 -0.7204,-1.89 1.9231357,2.3995578 0 0 0 -2.2667,1.89 2.0413176,2.5470166 0 0 1 -0.4408,1.167 7.9396523,9.906554 0 0 0 -1.0738,2.024 15.352863,19.156246 0 0 1 -2.2776,4.678 1.5041288,1.8767491 0 0 0 -0.3869,2.226 z"
   id="path1699"
   style="stroke-width:1.19981" /><path
   d="m -10905.664,-45182.295 -1.074,-0.269 c -2.471,-1.085 -3.696,-3.083 -3.696,-5.965 l 0.215,-1.34 q 3.051,-14.371 6.736,-50.19 3.685,-35.819 5.877,-79.226 -34.799,-3.257 -55.868,-16.823 a 4.6413119,5.7911115 0 0 1 -2.61,-5.161 4.5446182,5.6704633 0 0 1 0.655,-2.99 4.9528818,6.1798666 0 0 1 4.136,-3.244 5.457839,6.8099181 0 0 1 2.386,0.804 q 22.164,14.425 51.731,15.765 0.644,-18.178 0.644,-35.001 0,-25.471 -2.062,-55.351 -2.063,-29.881 -11.636,-43.42 a 18.425581,22.990176 0 0 1 -0.87,-6.783 q 0,-13.834 10.443,-18.768 a 19.059464,23.781092 0 0 1 5.651,-1.085 q 10.884,0 14.783,13.016 8.907,32.039 8.918,74.628 a 387.74296,483.7991 0 0 1 -4.566,72.764 274.49282,342.4933 0 0 0 78.504,-21.301 q 38.678,-18.03 65.538,-45.846 26.859,-27.816 30.813,-60.7 l 0.215,-5.697 q 0,-27.132 -19.79,-43.42 -26.752,-22.239 -81.116,-22.253 -65.666,0 -134.824,31.208 -41.095,18.767 -72.961,47.079 -31.866,28.312 -46.423,65.794 a 5.0173441,6.2602987 0 0 1 -4.792,4.021 l -1.515,-0.268 a 4.888419,6.0994345 0 0 1 -3.051,-5.697 l 0.225,-2.172 q 9.551,-30.939 41.751,-61.329 32.199,-30.39 77.194,-55.217 a 516.52858,644.48903 0 0 1 93.299,-38.661 q 41.739,-11.944 78.504,-11.944 5.641,0 29.245,1.086 23.604,1.086 48.82,24.424 24.141,22.253 24.141,68.917 0,37.187 -21.101,65.941 -19.564,26.583 -50.12,44.09 a 285.78446,356.58232 0 0 1 -65.794,25.967 340.10497,424.35978 0 0 1 -66.322,8.405 h -1.966 q -10.432,74.078 -23.486,131.6 a 4.4156926,5.509599 0 0 1 -4.781,4.612 z"
   id="path1701"
   style="stroke-width:1.19981" /><path
   d="m -10668.194,-45239.778 c -0.29,0 -1.074,-0.09 -2.503,-0.268 -1.429,-0.174 -2.719,-2.346 -4.019,-6.515 q -4.147,-18.177 -4.136,-54.533 0,-45.042 2.396,-87.376 a 15.782608,19.69246 0 0 1 4.996,-13.7 15.4603,19.2903 0 0 1 10.873,-5.295 14.97683,18.687058 0 0 1 11.635,6.113 16.674349,20.805104 0 0 1 4.459,14.518 q -0.215,3.807 -7.822,38.259 -16.76,77.885 -16.749,91.706 c 0,3.083 0.44,4.611 1.31,4.611 q 1.945,0 5.867,-26.315 2.825,-17.628 6.962,-37.722 9.991,-48.26 23.045,-49.6 10.217,0.536 16.534,9.089 a 79.50396,99.199594 0 0 1 11.09,19.397 q 6.078,15.483 15.04,22.253 a 11.388412,14.209671 0 0 0 5.875,1.904 q 8.047,0 20.413,-11.395 a 6.0487476,7.5472124 0 0 1 3.042,-1.086 4.2115611,5.2548974 0 0 1 3.48,2.038 5.0925505,6.3541362 0 0 1 1.3,3.928 4.5231306,5.6436526 0 0 1 -1.942,4.517 q -16.332,15.148 -31.558,15.148 -14.34,0 -32.401,-15.738 -10.014,-9.236 -17.395,-9.222 -4.297,1.085 -7.176,12.198 a 197.91115,246.93996 0 0 0 -5.222,26.329 q -2.149,13.003 -4.781,24.411 -5.006,22.346 -12.613,22.346 z"
   id="path1703"
   style="stroke-width:1.19981" /><path
   d="m -10493.79,-45192.336 -1.526,-0.268 q -11.731,-6.783 -11.731,-59.426 0,-23.071 1.3,-40.699 l 0.214,-4.021 q -21.306,38.527 -39.753,55.069 -9.346,8.432 -18.477,8.418 a 24.82887,30.979765 0 0 1 -5.663,-0.817 q -11.957,-6.515 -11.957,-27.95 0,-0.537 0.215,-11.797 0.214,-11.261 9.893,-33.098 9.669,-21.864 25.784,-26.462 a 18.264426,22.789096 0 0 1 4.784,-0.818 q 14.125,0 30.445,24.974 c 2.321,-4.343 3.835,-7.064 4.569,-8.15 l -0.658,-8.137 q 0,-11.395 7.179,-16.274 a 18.264426,22.789096 0 0 1 9.13,-3.258 c 2.471,0 5.653,1.086 9.574,3.258 3.92,2.171 5.942,8.767 6.092,19.799 q -0.45,8.151 -6.961,44.238 -10.005,53.474 -10.005,67.027 0,4.021 0.871,5.147 l 0.872,0.282 q 3.457,0 12.173,-13.164 a 256.44327,319.97231 0 0 0 19.133,-34.05 312.80515,390.29679 0 0 0 17.834,-40.564 q 7.393,-19.666 7.619,-29.492 a 4.4264364,5.5230044 0 0 1 4.564,-4.343 l 1.3,0.268 c 2.322,0.911 3.484,2.681 3.484,5.429 0,2.748 -3.409,13.017 -10.22,30.39 q -8.486,20.885 -20.016,44.492 -26.352,53.997 -40.062,53.997 z m -53.279,-63.756 q 3.922,0 14.794,-16.556 a 251.06061,313.25623 0 0 0 16.116,-26.596 q -5.865,-8.673 -11.086,-8.673 -7.609,0 -13.969,15.188 -7.831,18.996 -7.831,32.562 c 0.02,2.708 0.675,4.075 1.976,4.075 z"
   id="path1705"
   style="stroke-width:1.19981" /><path
   d="m -10425.504,-45086.782 q -18.705,0 -18.705,-31.744 0,-20.631 13.269,-48.849 a 297.20512,370.83221 0 0 1 57.406,-82.483 q 1.514,-22.521 1.525,-40.431 a 189.45579,236.38995 0 0 0 -1.3,-29.572 14.686744,18.325114 0 0 1 -13.27,9.223 l -3.05,-0.268 -9.561,19.263 q -11.745,24.13 -18.92,36.637 -4.568,7.319 -8.489,7.319 a 7.0801496,8.834126 0 0 1 -4.994,-2.976 q -8.263,-11.394 -8.263,-33.111 a 83.103123,103.69039 0 0 1 5.759,-37.039 q 5.767,-18.861 17.287,-29.706 a 27.278454,34.036185 0 0 1 16.534,-6.783 34.175963,42.642421 0 0 1 19.791,7.869 17.028886,21.247481 0 0 1 4.994,-14.384 15.718151,19.612028 0 0 1 10.872,-5.429 l 3.696,0.134 q 3.224,0.147 8.047,6.112 11.088,14.921 11.088,52.911 a 206.28052,257.38273 0 0 1 -1.461,30.095 q 46.961,-42.588 79.59,-45.846 h 0.657 a 4.2975109,5.3621403 0 0 1 2.932,1.622 4.5338745,5.6570579 0 0 1 1.407,4.343 4.2975109,5.3621403 0 0 1 -1.3,4.21 4.1256108,5.1476546 0 0 1 -2.825,1.488 l -1.311,-0.268 a 39.945371,49.841094 0 0 0 -6.081,-0.55 q -25.667,0 -74.595,47.214 -9.775,71.048 -34.378,130.032 -23.51,50.953 -46.351,50.967 z m 2.386,-11.127 q 3.04,0 11.529,-4.209 8.487,-4.209 20.414,-40.565 11.73,-42.039 16.523,-93.609 a 307.65888,383.87562 0 0 0 -48.274,75.164 q -11.968,26.582 -11.968,42.897 a 24.03383,29.987769 0 0 0 0.872,8.137 q 3.082,12.172 10.904,12.185 z m -0.214,-167.138 q 6.09,-10.59 14.794,-29.572 4.126,-9.223 8.69,-18.767 -7.604,1.34 -12.612,10.576 a 60.648631,75.673204 0 0 0 -7.715,20.216 70.457694,87.912289 0 0 0 -3.157,17.547 z"
   id="path1707"
   style="stroke-width:1.19981" /><path
   d="m -10197.391,-45192.336 -1.515,-0.268 q -11.742,-6.783 -11.742,-59.426 0,-23.071 1.299,-40.699 l 0.216,-4.021 q -21.306,38.527 -39.753,55.069 -9.348,8.432 -18.479,8.418 a 24.710689,30.832306 0 0 1 -5.652,-0.817 q -11.957,-6.515 -11.968,-27.95 0,-0.537 0.226,-11.797 0.226,-11.261 9.895,-33.098 9.668,-21.864 25.784,-26.462 a 18.264426,22.789096 0 0 1 4.783,-0.818 q 14.126,0 30.446,24.974 c 2.321,-4.343 3.835,-7.064 4.567,-8.15 l -0.742,-8.191 q 0,-11.394 7.177,-16.274 a 18.264426,22.789096 0 0 1 9.132,-3.257 q 3.707,0 9.573,3.257 5.867,3.258 6.093,19.8 -0.431,8.15 -6.963,44.237 -10.014,53.474 -10.003,67.027 0,4.022 0.871,5.148 l 0.87,0.281 q 3.48,0 12.173,-13.164 a 257.91519,321.80885 0 0 0 19.146,-34.049 314.66384,392.61591 0 0 0 17.823,-40.565 q 7.403,-19.666 7.618,-29.492 a 4.4264364,5.5230044 0 0 1 4.565,-4.343 l 1.3,0.268 c 2.322,0.912 3.481,2.681 3.481,5.429 0,2.748 -3.406,13.017 -10.217,30.39 q -8.476,20.886 -20.005,44.493 -26.289,54.05 -39.999,54.05 z m -53.278,-63.756 q 3.911,0 14.794,-16.556 a 254.15484,317.11697 0 0 0 16.116,-26.596 q -5.888,-8.673 -11.098,-8.673 -7.608,0 -13.915,15.188 -7.831,18.996 -7.831,32.562 c -0.02,2.708 0.676,4.075 1.934,4.075 z"
   id="path1709"
   style="stroke-width:1.19981" /><path
   d="m -10062.556,-45143.768 a 99.72375,124.42846 0 0 1 -18.705,-2.172 h -0.215 q -30.673,-8.955 -44.588,-37.977 -15.438,-32.039 -15.438,-83.301 0,-71.639 25.442,-168.506 -20.413,5.979 -27.505,13.406 -7.091,7.426 -12.891,7.467 a 22.959454,28.647234 0 0 1 -6.534,-2.038 q -4.554,-2.024 -6.307,-17.226 v -2.44 a 16.631364,20.751483 0 0 1 3.589,-12.896 15.546243,19.397543 0 0 1 10.336,-7.185 q 20.66,-3.003 46.102,-4.611 22.39,-76.786 38.925,-114.509 4.995,-10.858 14.352,-10.858 a 15.653682,19.531595 0 0 1 7.393,2.453 q 8.476,5.965 8.476,17.36 a 17.64128,22.011586 0 0 1 -1.739,9.491 q -13.27,29.867 -36.959,94.427 45.865,-1.622 108.5118,-2.681 c 3.2224,0.362 4.781,2.44 4.781,6.234 0,3.793 -1.5264,5.523 -4.5665,5.697 a 982.57221,1225.9863 0 0 0 -115.6893,11.126 708.20833,883.6539 0 0 0 -26.096,89.267 q -15.235,61.664 -15.224,105.821 a 106.66418,133.08832 0 0 0 9.347,55.767 q 9.347,25.644 38.495,34.049 a 89.098146,111.17057 0 0 0 16.523,1.904 q 37.841,0 85.4681,-37.441 55.8669,-43.702 104.2142,-130.247 a 4.7917249,5.9787864 0 0 1 4.1363,-2.681 4.6735433,5.8313275 0 0 1 2.6108,1.086 6.1346968,7.6544552 0 0 1 2.1489,5.148 4.6735433,5.8313275 0 0 1 -0.8703,3.257 q -49.5722,88.475 -106.9863,133.772 -49.8727,39.05 -90.5377,39.037 z"
   id="path1711"
   style="stroke-width:1.19981" /><path
   d="m -9801.3863,-45325.29 a 6.9619679,8.6866672 0 0 0 -2.6109,-0.805 c -1.8901,0 -3.4051,2.078 -4.5654,6.234 q -3.0514,9.518 -12.7207,21.837 a 102.00149,127.2704 0 0 1 -18.157,18.996 q -8.4875,6.702 -12.8924,6.702 -4.7809,0 -4.7809,-5.965 0,-7.319 9.132,-30.926 5.6622,-14.92 5.6514,-20.631 0,-12.749 -10.0025,-17.91 a 16.889222,21.073211 0 0 0 -6.2958,-1.622 q -10.4432,0 -14.5795,12.749 -5.6403,18.459 -5.6511,33.915 a 53.546993,66.812268 0 0 0 1.0741,13.567 q 3.4809,20.912 16.7497,26.046 a 24.710689,30.832306 0 0 0 5.651,0.818 q 8.7026,0 17.8352,-6.783 a 101.82947,127.05591 0 0 0 22.5615,-22.655 110.18821,137.48528 0 0 0 15.5464,-25.095 5.8661024,7.3193214 0 0 0 0.6552,-3.258 4.6413119,5.7911115 0 0 0 -2.6003,-5.214 z"
   id="path1713"
   style="stroke-width:1.19981" /><text
   xml:space="preserve"
   id="text1977"
   style="font-style:normal;font-variant:normal;font-weight:normal;font-stretch:normal;font-size:64px;font-family:BebasNeue-Regular;-inkscape-font-specification:BebasNeue-Regular;white-space:pre;shape-inside:url(#rect1979);fill:#000000"
   transform="translate(-11616.416,-45645.059)" /></svg>
