<?xml version="1.0" encoding="UTF-8" standalone="no"?>
<!-- Created with Inkscape (http://www.inkscape.org/) -->

<svg
   width="124.61874mm"
   height="121.52312mm"
   viewBox="0 0 124.61874 121.52312"
   version="1.1"
   id="svg232"
   xmlns:inkscape="http://www.inkscape.org/namespaces/inkscape"
   xmlns:sodipodi="http://sodipodi.sourceforge.net/DTD/sodipodi-0.dtd"
   xmlns="http://www.w3.org/2000/svg"
   xmlns:svg="http://www.w3.org/2000/svg">
  <sodipodi:namedview
     id="namedview234"
     pagecolor="#ffffff"
     bordercolor="#000000"
     borderopacity="0.25"
     inkscape:showpageshadow="2"
     inkscape:pageopacity="0.0"
     inkscape:pagecheckerboard="0"
     inkscape:deskcolor="#d1d1d1"
     inkscape:document-units="mm"
     showgrid="false" />
  <defs
     id="defs229" />
  <g
     inkscape:label="Layer 1"
     inkscape:groupmode="layer"
     id="layer1"
     transform="translate(-39.196954,-33.514972)">
    <g
       id="g44"
       transform="matrix(0.26458333,0,0,0.26458333,34.116955,13.750597)"
       style="fill:#800000">
	<path
   d="m 343.5,512.9 c -3.7,-8.3 -7.9,-16.4 -12.8,-24.1 -1.6,-2.5 -2.7,-4.8 -1.5,-7.8 0.6,-1.5 0.4,-3.1 0.3,-4.8 -0.6,-5.3 -2.9,-10.1 -5,-14.9 -0.5,-1.3 -1.8,-3 -0.7,-3.9 2.7,-2.2 4.1,-6 8.5,-6.3 5.6,-0.4 11,-5.7 12.1,-10.8 0.7,-3.4 -1.2,-5.9 -2.8,-8.6 -0.7,-1.2 -1.6,-2.6 -1,-3.9 0.8,-1.6 2.5,-0.8 3.8,-0.7 4.3,0.4 5.7,-0.2 7,-4.4 1.2,-4.1 4.5,-7.3 4.5,-11.9 0,-1.2 1.4,-1.7 2.5,-2.2 2.6,-1.2 4.5,-3.1 5.4,-6 2.4,-7.3 -3.9,-21.9 -10.9,-25 -0.4,-0.2 -0.8,-0.4 -1.2,-0.4 -2.8,0.2 -4.8,-1.5 -6.9,-3 -1.2,-0.9 -2.6,-1.6 -4,-2 -3.2,-1.1 -6,-2.5 -8.8,-4.4 -3,-2.1 -4.4,-5.8 -7.4,-7.5 -4.3,-2.4 -7.3,-6 -10.3,-9.5 -9.4,-10.9 -25.9,-3.6 -30,5.4 -1,2.1 -1.8,4.4 -3.8,5.9 -5,3.6 -9.4,7.9 -13.7,12.2 -3.5,3.4 -7.2,7.1 -8.6,11.9 -1.6,5.7 -5.1,10.5 -7.1,16 -3,8.1 -9.8,14.5 -9.7,24.1 0.1,3.7 -1,7.4 -0.2,11.2 0.2,1.2 0.6,2.4 -0.2,3.4 -2,2.3 -2.4,5.4 -3.6,8 -3.3,6.5 -3.9,12.9 -2.2,19.9 1.3,5.6 4.6,9.8 9.1,10.3 4.1,0.5 9.1,-2.7 10.4,-7.1 1.7,-5.5 3.6,-11 3,-17 -0.2,-1.7 0.3,-3.3 1.1,-4.9 2.3,-4.4 5.4,-8.2 6.9,-13 0.7,-2.2 1.7,-4.4 2.6,-6.6 0.6,-1.4 1.4,-2.3 3.1,-2.2 5.8,0.3 11.4,1.5 17.1,2.8 1.4,0.3 2.4,0.9 2.8,2.3 0.5,1.7 0.9,3.5 1.6,5.2 1.9,5.1 3.6,10.3 6,15.2 1.5,3 3.6,5.8 4.3,9.2 0.2,0.8 0.7,1.6 1.3,2.2 3.5,3.2 4.2,7.6 4.9,12 0.2,1.6 0.7,3.1 2.2,3.7 4,1.6 4.9,4.7 4.5,8.6 -0.1,0.8 0.3,1.7 0.5,2.5 1.6,5.6 3.1,11.1 4.9,16.6 1.2,3.7 2.3,7.4 3.3,11.1 1.6,6.2 5.2,10.9 10.5,14.3 2.6,0 5.2,0 7.8,0 0.2,-1.2 1.3,-1.4 2,-1.9 4.7,-3.4 4.2,-8.8 2.3,-12.7 -1.4,-2.3 -2.9,-4.3 -3.9,-6.5 z"
   id="path4"
   style="display:inline;fill:#008000"
   inkscape:label="path4" />

	<path
   d="m 254.4,130.9 c -0.9,5.6 -0.2,11.4 -0.3,17 0,1.3 0.8,2.7 1.5,3.9 1.1,1.8 6.1,3.4 7.4,2.3 3.3,-2.9 6.4,-5.9 6,-11 -0.2,-3.4 0.2,-6.9 -0.6,-10.2 -0.8,-3.3 -0.5,-6.5 0.5,-9.5 1.2,-3.5 1.4,-7.1 1.4,-10.8 0.1,-6.6 0.3,-13.1 0.3,-19.7 0.1,-6.5 0.7,-13.1 -4.7,-18.2 -2.6,0 -5.2,0 -7.8,0 0.5,1.3 -0.8,1.3 -1.3,1.8 -1.9,1.8 -3.2,3.9 -3.3,6.5 -0.2,8 -0.3,16.1 0.6,24.1 1,7.9 1.6,15.9 0.3,23.8 z"
   id="path6"
   style="fill:#c837ab" />

	<path
   d="m 489,249.8 c -2.6,-3.7 -5.9,-4.9 -10.3,-3.6 -6.2,1.8 -12.1,4.3 -18,6.8 -6.3,2.7 -12.3,6 -18.7,8.5 -5.1,2 -10.6,2.6 -15.6,4.8 -3.9,1.7 -8.4,2 -11.2,5.8 -1.6,2.2 -0.9,6.8 1.2,8.1 4.2,2.6 8.3,2.5 13,0.9 3.9,-1.3 7.2,-3.8 11,-5.1 5.7,-2 11.8,-1.7 17.4,-4.1 10.9,-4.6 23.2,-6 32.4,-14.5 0,-2.4 0,-4.7 0,-7.1 -0.6,0.2 -0.9,-0.1 -1.2,-0.5 z"
   id="path8"
   style="fill:#000080" />

	<path
   d="m 76.3,301.2 c 3,-0.5 5.9,-0.6 8.9,-0.2 2.9,0.4 5.8,0.6 8.5,-0.9 1.1,-0.7 2,-1.5 1.4,-2.8 -1,-2.2 -2.2,-4.3 -4.8,-4.7 -3.7,-0.7 -7.3,-1.6 -11,-2.1 -6.5,-0.9 -13,-1.4 -19.3,-3.1 -3.7,-1 -7.7,0.2 -11.4,-1.8 -3.9,-2.1 -8.3,-3 -12.6,-3.5 -6,-0.8 -11.6,0 -15.7,5.2 -0.3,0.4 -0.7,0.3 -1.1,0.1 0,2.4 0,4.7 0,7.1 0.9,-0.8 1.3,0.1 1.8,0.5 1.2,1.1 2.5,1.9 4.1,2.4 7.5,2.2 15.1,3.9 23.1,3.2 3.6,-0.3 7.3,0.3 10.9,0.6 5.8,0.3 11.5,1 17.2,0 z"
   id="path10"
   style="fill:#ff6600" />

	<path
   d="m 240.3,403.4 c 1.6,-4.5 3.6,-8.4 6.2,-12.2 1.8,-2.7 2.9,-5.5 2.5,-8.6 1.6,-7.8 -9.6,-18.4 -15.5,-18.8 -3.7,-0.2 -6.6,-1.8 -9.4,-3.8 -4.3,-3 -8.7,-5.9 -13.3,-8.4 -3.8,-2.1 -7.9,-4.7 -12.2,-4.7 -6.2,-0.1 -12,-1.9 -18.1,-2.7 -2,-0.2 -4.1,-0.4 -6,-1.2 -7.1,-2.7 -14.4,-2.9 -21.8,-1.7 -3.3,0.5 -6.6,0.9 -9.5,2.8 -0.9,0.6 -2.1,1.3 -3,0.7 -2.9,-1.7 -6.2,-0.6 -9.1,-1.4 -8.4,-2.6 -15.2,0.7 -22,4.7 -3.7,2.1 -5.8,6.5 -5.1,10 0.8,4 4.9,8.1 8.9,8.2 5.8,0.2 11.6,1 17.2,-1.4 2.1,-0.9 4,-0.7 6.2,-0.3 3.9,0.8 7.5,2.4 11.5,2.8 2.7,0.3 5.4,0.3 8,0.5 2.5,0.2 3.9,1 4.6,3.8 1.1,4.8 0.5,9.7 1.6,14.4 0.7,3.2 -0.3,4.7 -3,6.1 -5.3,2.8 -9.8,7 -14.6,10.6 -3.5,2.7 -6.5,6.2 -10.2,8.7 -0.6,0.4 -1.1,1.1 -1.4,1.7 -1.8,3.5 -5.1,5.2 -8.5,6.5 -2.6,1 -4.2,2.7 -4.7,5.2 -0.6,3.1 -2.4,4.3 -5.2,4.8 -0.9,0.2 -1.8,0.6 -2.7,1 -9.3,5.2 -17.9,11.4 -26.9,17 -3,1.8 -5.2,4.5 -7.1,7.4 -3.1,5 -2.2,11.7 2.8,14.7 4.3,2.6 8.9,2 12.9,-2.2 1.6,-1.7 3,-3.7 4.9,-5.1 6.5,-5 12.3,-10.7 17.8,-16.7 2.7,-2.9 5.1,-5.8 9.6,-5.2 0.7,0.1 1.4,-0.4 2.2,-0.6 5.8,-1.8 10.3,-5.7 14.9,-9.4 0.9,-0.8 1.9,-2.4 3.2,-1.5 2.9,1.9 6.7,2.5 8.3,6.6 2.4,6.1 9.8,9.7 15.4,8.2 2.9,-0.8 4.4,-3.3 6.5,-5.1 0.9,-0.7 1.8,-2 3,-1.6 1.4,0.4 1.4,2 1.7,3.2 0.1,0.5 0.2,1.1 0.2,1.6 0.1,2.1 1.3,3.9 3.1,4 4.5,0.2 8.8,2.6 13.3,1.7 2.5,-0.5 3.7,0.3 5.1,1.9 2.8,3 6.2,3.7 10.3,3 8,-1.4 11.7,-7.8 16.3,-13.3 1.5,-1.8 1.5,-3.9 1.6,-6.1 0.3,-6.2 3.1,-12 2.9,-18.3 0,-0.3 0.4,-0.5 0.5,-0.8 1.6,-3.8 4.8,-7 6.1,-10.7 z"
   id="path12"
   style="fill:#800000" />

	<path
   d="m 207.9,214.8 c 1.4,1 2.1,2.4 2.5,4 0.7,2.8 2,5.4 3.7,7.8 3,4.2 4,9.1 4.1,14.2 0.1,1.3 -0.3,2.8 0.3,3.8 2.8,4.8 2,10.2 2.8,15.4 0.8,5.3 3.8,9.9 8.9,11.8 6.6,2.5 13.6,3.6 20.1,-0.8 0.8,-0.5 1.8,-0.7 2.8,-0.7 5.9,-0.5 11.8,-0.7 17.7,-1.3 5.7,-0.6 11.6,-1.3 16.3,-4.5 5.4,-3.7 11.2,-6.3 17,-9 8.3,-3.8 16.8,-6.9 22.8,-14.2 0.1,-0.1 0.2,-0.1 0.3,-0.2 1.9,-1.6 3.6,-3.4 4.3,-5.9 0.4,-1.5 1.4,-3.1 2.8,-3.3 3.4,-0.4 5.3,-3.2 8,-4.3 8.1,-3.3 12.1,-9.9 14.8,-17.6 1.4,-4 0.7,-7.3 -2.4,-10.2 -3,-2.8 -6.7,-3.4 -10.2,-1.8 -5.3,2.6 -10.4,5.9 -13.6,11 -2.3,3.6 -5.8,5.1 -9.3,6.5 -2.1,0.8 -4.1,1.6 -6.2,2.6 -3.1,1.5 -6,3.3 -8.9,5.2 -1.7,1.1 -3,1 -4.6,-0.3 -4.5,-3.7 -7.6,-8.7 -11.9,-12.6 -1.1,-1 -0.6,-2.1 -0.2,-3.2 2.7,-8.3 6.2,-16.4 7,-25.3 0.1,-1.3 0.6,-2.5 1.1,-3.7 0.7,-1.4 1.1,-2.9 0.9,-4.4 -0.6,-4.4 1,-8.2 3.3,-11.8 1.2,-1.8 1.6,-3.9 0.6,-5.5 -2.1,-3.5 -0.8,-6 1.5,-8.7 0.7,-0.8 1.2,-1.8 1.6,-2.8 3.3,-8.6 6.6,-17.2 10,-25.8 1.6,-3.9 2.7,-7.9 2.5,-12.2 -0.4,-6.2 -4.8,-10.9 -10.2,-11 -5.7,-0.2 -9.3,3.4 -10.2,10.2 -0.3,2.1 -0.3,4.3 -0.8,6.4 -2,8.1 -3.6,16.3 -4.5,24.6 -0.3,2.4 0.3,5.4 -1.9,7 -6.6,4.9 -8.2,12.4 -10.1,19.6 -0.6,2.3 -0.7,4.5 -3.9,4.3 -2.2,-0.2 -4.4,2.1 -6.5,0.5 -3.8,-2.9 -8.1,-2.6 -12.4,-2.6 -4.1,0 -8,3.8 -8.4,7.9 -0.2,1.4 -0.2,2.8 -0.5,4.1 -0.3,1.2 -0.4,2.8 -1.8,3.3 -1.5,0.5 -2.2,-1.1 -3,-2 -1.7,-1.7 -3.6,-3.4 -5.9,-2.1 -4.2,2.5 -9.3,3.4 -12.6,7.4 -0.8,1 -1.6,1.3 -2.8,0.9 -5.8,-1.5 -9.5,0.2 -12.9,4.9 -4.4,6.2 -3.7,13.2 -3.9,20.1 -0.3,1.6 0.5,3.3 1.9,4.3 z"
   id="path14"
   style="fill:#c837ab" />

	<path
   d="m 66.4,216.2 c 7.9,4.9 15.8,9.9 24.2,13.9 3.8,1.8 7.4,3.4 8.2,8.1 0.2,1 1.2,1.8 1.8,2.6 3.3,4.5 8,7.4 12.5,10.4 1.1,0.7 2.8,1.3 2.2,3.1 -1,3.4 -1.1,6.8 -4.1,9.8 -4.8,4.8 -7,12 -2.9,17.1 1.8,2.2 4.4,3 6.7,4.3 1.1,0.6 2.1,1.3 1.9,2.7 -0.1,1.2 -1.2,1.6 -2.2,2 -2.2,0.9 -4.8,2.1 -4.3,4.9 0.7,3.9 -0.1,8 1.7,11.7 1.4,2.9 1.9,5.5 -0.6,8.1 -1,1.1 -0.6,2.7 -0.7,5 -0.1,1.2 0.5,3 1.5,4.9 4.2,7.7 11.9,9.6 19.4,11.9 1.1,0.3 2.6,0.3 3.5,-0.2 2.4,-1.6 4.9,-1.1 7.5,-1.2 1.4,0 2.9,0.1 4.2,-0.4 6.2,-2 12.3,-1.5 18.2,0.9 1.5,0.6 2.9,0.8 4.4,0.7 2.7,-0.1 5.3,0.2 7.9,1.1 2.3,0.8 4.6,1.7 7.1,1.8 12.2,0.4 19.8,-12.7 18.6,-21.4 -0.3,-2 -0.7,-4.1 -0.2,-6.1 1.5,-5.5 3.4,-10.8 4.8,-16.4 1.3,-5.4 2.7,-10.9 1.7,-16.5 -0.6,-3.5 -1.2,-7.1 -2,-10.5 -2.5,-11 0.5,-22.9 -5.8,-33.3 -1.7,-2.9 -2.6,-6.3 -5.3,-8.6 -0.9,-0.8 -2,-1.7 -1.9,-2.9 0.3,-3.3 -1.1,-6.3 -1.3,-9.3 -0.6,-8.9 -5.2,-15 -11.7,-20.2 -3.3,-2.7 -6.9,-3.2 -10.5,-1.1 -3.2,1.9 -5.4,4.8 -4.9,8.8 0.7,6.4 2.4,12.6 6.4,17.9 1.3,1.8 2.2,3.6 2.1,5.9 -0.2,6.9 0.6,13.7 2.5,20.4 0.6,2.2 -0.3,3.6 -2.2,4.7 -4.4,2.5 -9.4,3.6 -13.8,6 -2.3,1.3 -4,1 -5.8,-0.8 -7.8,-7.7 -17.7,-12.4 -26.3,-18.8 -0.3,-0.2 -0.6,-0.4 -0.9,-0.4 -4.5,-0.4 -7.2,-3.6 -9.9,-6.7 -1.9,-2.1 -3.9,-3.3 -6.7,-2.9 -2.3,0.3 -4,-0.6 -5.1,-2.6 -1.5,-2.6 -3.5,-4.6 -5.8,-6.4 -6.7,-5.7 -13.3,-11.6 -20,-17.2 -3.9,-3.3 -8.5,-5.6 -13.8,-5.3 -4.2,0.3 -7.4,2.4 -8.9,6.4 -1.4,3.9 -0.6,7.3 2.4,10.3 1.7,1.9 4.1,2.5 6.2,3.8 z"
   id="path16"
   style="fill:#ff7f2a" />

	<path
   d="m 473.6,295.4 c -2.5,0.6 -4.9,1.6 -7.5,1.7 -7.6,0.5 -15,2.5 -22.4,3.8 -3,0.5 -6,3.2 -9,1.4 -6.8,-4.2 -13.8,-3.9 -21.2,-2.7 -2.3,0.4 -5.2,1.7 -6.2,-1.9 -0.7,-2.4 -3.5,-3.9 -2.6,-6.7 1,-3 0.1,-5.8 -0.6,-8.5 -1.8,-7.2 -6.6,-9.9 -13.7,-8.1 -0.8,0.2 -1.7,0.3 -2.5,0.4 -3.3,0.3 -4,-0.7 -2.7,-3.7 2,-4.4 1.1,-5.4 -2,-8.9 -4.1,-4.6 -10.9,-6.2 -12.5,-13.7 -1.1,-5.4 -10.9,-8 -17,-6 -2.8,0.9 -5.5,1.7 -8.3,2.7 -2.3,0.8 -4.9,1.6 -5.7,4.3 -0.7,2.1 -2,3.4 -3.8,4.6 -1.7,1.1 -3.1,2.6 -4.3,4.3 -3.2,4.9 -7.6,8.3 -13.1,10.2 -4.3,1.5 -6.8,5.9 -11.4,7.1 -2,0.5 -4,1.6 -5.8,2.7 -10,6.6 -8.5,21.3 -1.8,28.3 2.1,2.2 4.3,4.2 5.5,7 2,4.8 4.1,9.7 6.5,14.4 2.6,5 5.3,10.2 10.2,13.5 5.5,3.7 9.6,8.9 14.7,13 2.6,2.1 4.9,4.8 6.9,7.6 1.4,2 3.2,3.3 5.3,4 2.5,0.9 4.9,2.1 7.2,3.4 2.8,1.6 5.5,2.9 8.8,2.8 1.5,-0.1 3.2,0.5 3.8,1.5 1.5,2.9 4.6,3.8 6.6,5.9 6,6.1 13.2,8 21.4,7.8 4.3,-0.1 7.3,-1.7 9,-5.5 1.6,-3.6 1.3,-7.4 -1.5,-10.2 -4.4,-4.5 -9.7,-7.8 -15.8,-9.4 -2.3,-0.6 -4.2,-1.4 -5.8,-3.1 -4.7,-5 -9.2,-10.2 -15.1,-13.9 -2.4,-1.5 -2.4,-3.5 -1.4,-6.1 1.7,-4.5 4.8,-8.3 6.5,-12.9 0.8,-2.3 2.4,-3.1 4.7,-2.9 6.5,0.5 12.9,-1.1 19.3,-0.8 1,0.1 1.9,-0.2 2.8,-0.7 1.8,-0.9 3.7,-1.2 5.6,-0.9 2.4,0.3 4.6,-0.1 6.6,-1.1 3.7,-1.9 7.5,-1.4 11.3,-0.7 1.5,0.3 3,0.5 3.9,-0.5 3.6,-3.8 7.6,-3.7 12,-1.9 0.9,0.4 2.1,0.2 3.2,0.2 4.6,0 9.3,0 13.9,0 0,0 0,0 0,0.1 4.5,0 9,-0.1 13.6,0 4.2,0.1 8.1,-1.1 11.7,-3 2.8,-1.4 4.7,-3.8 5.4,-6.9 1.5,-8.2 -4.7,-13.9 -12.7,-12 z"
   id="path18"
   style="fill:#000080" />

	<path
   d="m 154.7,453.3 c -1.4,-2.4 -3.3,-4 -6.7,-3.7 -4.1,0.3 -6.2,2.8 -8.8,5.3 -4,4 -5.3,9.8 -9.3,13.8 -2.6,2.6 -5.7,4.4 -8,7.4 -5.2,6.9 -10.7,13.5 -15.9,20.3 -2.4,3.2 -5.1,6.4 -5.1,11.9 -0.1,2.8 1.3,4.9 4.8,6.5 3.1,1.4 6.8,0.8 9.2,-1.9 5.5,-6.2 10.1,-13 14.6,-20 3.8,-5.9 7,-12.4 12.1,-17.3 4.8,-4.6 8.1,-10.3 12.3,-15.3 1.6,-1.9 2.2,-4.6 0.8,-7 z"
   id="path20"
   style="fill:#800000" />

	<path
   d="m 26.2,248.1 c 3.2,1.8 6.6,3 10.1,4.1 8.6,2.8 17.5,4.9 26.1,7.8 8.4,2.8 16.3,7 24.6,9.9 4.1,1.5 7.1,0.6 9.2,-3.1 1.2,-2.1 0.1,-7.6 -2.3,-9.2 -3.8,-2.6 -7.9,-4.8 -12.6,-5.4 -2.8,-0.4 -5.4,-1.4 -8,-2.2 -3.1,-1 -4.9,-3.8 -7.9,-4.9 -6.5,-2.4 -12.9,-5.2 -19.4,-7.7 -5.1,-2 -10.1,-4.1 -14.9,-4.8 -4.6,-0.1 -8.2,2.2 -9.1,5.3 -1,4.1 0.5,8.1 4.2,10.2 z"
   id="path22"
   style="fill:#ff7f2a" />

	<path
   d="m 379.4,489.7 c -4,-4 -7.9,-8.3 -10.8,-13.1 -3.7,-6.1 -8.3,-11.4 -12.3,-17.3 -1.6,-2.4 -3.9,-4.2 -6.9,-3.6 -5.7,1.2 -6.8,7.5 -4.8,11.7 1.9,3.8 4.2,7.5 7.6,10.2 4.5,3.6 6.1,9.2 8.9,13.9 5.4,8.8 11.9,16.8 18.1,25 1.6,2.1 3.4,3.8 5.8,5.1 5.7,3.1 11.9,-0.6 12,-7.3 0.3,-1.8 -0.5,-3.6 -1.7,-5.2 -5,-6.7 -10,-13.4 -15.9,-19.4 z"
   id="path24"
   style="fill:#008000" />

	<path
   d="m 182.4,461.3 c -2.3,-0.3 -5.3,0.3 -6.1,2.6 -1.6,4.7 -5,8.4 -6.9,13 -1.3,3.2 -2.3,6.5 -3.9,9.5 -1.6,3 -4.2,5.6 -4.9,9 -0.6,2.9 -2,5 -3.9,7.2 -4.6,5.5 -7.8,11.8 -8.9,18.9 0.2,1.2 0.3,2.4 0.6,3.6 0.7,3.7 2.6,6.7 6.5,7.1 3.6,0.4 5.8,-2.3 7.5,-5.2 1.8,-2.9 3.9,-5.7 5.3,-8.8 3.8,-8.8 5.6,-18.4 9.7,-27.2 3,-6.5 2.7,-13.9 5.6,-20.4 0.6,-1.4 1.6,-2.8 1.4,-4.6 -0.2,-1.7 0.6,-4.3 -2,-4.7 z"
   id="path26"
   style="fill:#800000" />

	<path
   d="m 211,117.8 c 3.4,7.2 4.6,15.1 7.1,22.6 1.8,5.5 5.5,10.2 6.4,16 0.2,1.3 0.6,2.6 1.2,3.6 1,1.7 2,4.1 4.4,3.4 2.2,-0.6 4,-3 3.6,-5.2 -0.8,-4.8 -1.2,-9.7 -2.1,-14.6 -0.7,-3.5 -2.1,-6.7 -2.4,-10.3 -0.3,-3.3 -0.1,-6.8 -1.4,-9.8 -1.4,-3.3 -1.6,-6.6 -1.3,-10.1 0.5,-4.5 -0.7,-8.8 -1.8,-13 -0.9,-3.7 -2.7,-6.9 -6,-9.2 -2.6,-1.9 -5.2,-2.6 -8.1,-1.2 -2.8,1.4 -3.6,4.2 -3.3,6.9 1.1,7.1 0.5,14.2 3.7,20.9 z"
   id="path28"
   style="fill:#c837ab" />

	<path
   d="m 395.5,253 c 2.1,1 4.3,2.3 6.7,0.8 3.4,-2.3 7.5,-3.5 10.5,-5.9 7,-5.6 15.8,-8.3 22.4,-14.3 0.8,-0.7 1.7,-0.8 2.7,-1 6.8,-1.8 12.7,-5.2 17.7,-10 2.4,-2.3 3.3,-5.4 3.8,-8 0.1,-6.1 -4.7,-9.1 -9.8,-6.7 -6.8,3.2 -13.8,6.1 -19.3,11.8 -6.7,6.8 -15.7,10.9 -22.1,18.1 -2.4,2.8 -5.1,5.2 -8.2,7.2 -2,1.3 -3.7,2.9 -4.8,5.1 -0.7,1 -0.8,2.3 0.4,2.9 z"
   id="path30"
   style="fill:#000080" />

	<path
   d="m 410.7,457.5 c -5.4,-3.1 -10.7,-6.4 -15.4,-10.5 -7.5,-6.5 -17.2,-9.5 -24.9,-15.7 -0.6,-0.5 -1.5,-0.8 -2.3,-1 -2.4,-0.7 -3.8,0.4 -4.1,2.7 -0.2,1.9 0,4.2 1.7,5.3 4.9,3.2 7.7,8.5 12.8,11.6 6.4,3.8 10,11 16.8,14.4 0.4,0.2 0.6,0.8 0.9,1.3 3.3,5.4 7.8,9.7 12.9,13.2 2.6,1.8 5.4,2.5 8.5,2.7 3.3,0.2 6,-1.2 7.5,-4 1.2,-2.3 0.8,-5 -1.1,-6.9 -4.4,-4.5 -7.8,-9.9 -13.3,-13.1 z"
   id="path32"
   style="fill:#008000" />

	<path
   d="m 228.7,485.5 c -0.6,-6.8 -1.7,-13.7 -0.5,-19.9 0.3,-5.1 -3.5,-8.7 -7.3,-7.3 -5.6,2.1 -10.9,7.9 -9.8,14.9 0.6,4.3 2.3,8.2 3.5,12.3 1.5,5.5 4.1,10.7 4.3,16.6 0.1,1.9 4.4,4.2 6.1,3.5 2.6,-1.2 5.4,-5 4.6,-7.8 -1.4,-4.1 -0.6,-8.2 -0.9,-12.3 z"
   id="path34"
   style="fill:#800000" />

	<path
   d="m 170.8,162.2 c 3.9,2.7 5.8,6.8 8.8,10.1 4.5,5 9.5,9.6 12.3,16 1.2,2.8 4.3,3.5 7.2,2.2 4.4,-2.1 4.5,-6.4 5.1,-9.8 0,-4.4 -1.4,-7.7 -4.4,-10.2 -3.7,-3.1 -7.7,-5.8 -11.5,-8.7 -3.8,-2.9 -8.3,-4.9 -11.2,-9 -1,-1.5 -5.7,-1.2 -6.7,0.2 -1.9,2.4 -2.1,7.5 0.4,9.2 z"
   id="path36"
   style="fill:#c837ab" />

	<path
   d="m 414,407.2 c 0.5,0 1,-0.2 1.5,-0.5 1.7,-1 3.4,-2 2.9,-4.4 -0.7,-2.9 -2.2,-6.1 -4.9,-6.1 -5,-0.1 -9.4,-2.2 -14.1,-2.9 -6.4,-1.1 -12.9,-2 -18.9,-4.8 -4.6,-2.1 -8.5,0.4 -8.5,5.4 0,6.5 6.1,13.1 12.5,13.3 9.8,0.4 19.7,-0.8 29.5,0 z"
   id="path38"
   style="fill:#008000" />

	<path
   d="m 104.3,342.6 c 2.4,-0.3 4.2,-1 5.1,-3.2 0.9,-2.3 0.7,-4.7 -1,-6.7 -2.9,-3.3 -6.6,-4.9 -11.2,-5.4 -0.6,0.1 -1.5,0.3 -2.3,0.5 -5.6,1.3 -9.7,5.2 -14.4,8.2 -4.4,2.9 -8.6,6.3 -13.6,8.4 -2.1,0.9 -3.3,5 -2,6.6 1.8,2.3 6.6,4.1 9,2.4 3.8,-2.7 8.3,-3.1 12.4,-4.8 5.9,-2.4 11.6,-5.3 18,-6 z"
   id="path40"
   style="fill:#ff6600" />

	<path
   d="m 357.9,231.3 c 1.3,3 4.2,3.3 6.9,4 5.7,-1.1 11.1,-2.4 13.2,-8.7 1.4,-4.3 2.5,-8.6 3.9,-12.9 1.6,-5 2.1,-10.3 4.8,-14.9 1,-1.8 -0.9,-5.7 -2.9,-6 -4.3,-0.8 -8.3,1.8 -9.1,6.1 -0.3,1.4 -0.9,2.7 -1.8,3.7 -1.7,2 -2.9,4.2 -4.1,6.5 -2.8,5.2 -4.9,10.8 -9.1,15 -2.1,2.1 -3,4.4 -1.8,7.2 z"
   id="path42"
   style="fill:#000080" />

</g>
  </g>
</svg>
